<?xml version="1.0" encoding="UTF-8"?>
<svg version="1.1" xmlns="http://www.w3.org/2000/svg" width="288" height="79">
<path d="M0 0 C13.303125 -0.0928125 13.303125 -0.0928125 26.875 -0.1875 C31.04552002 -0.22846802 31.04552002 -0.22846802 35.30029297 -0.27026367 C37.53092008 -0.27903447 39.76155202 -0.286677 41.9921875 -0.29296875 C43.12857666 -0.30831665 44.26496582 -0.32366455 45.43579102 -0.33947754 C53.62137003 -0.34213807 61.82848251 0.21455109 68.5 5.4375 C71.68120903 8.69823926 72.78967894 10.38753851 73.375 14.875 C72.89187212 18.90106566 71.59708738 20.91157177 69 24 C66.25 25.375 66.25 25.375 64 26 C64 26.66 64 27.32 64 28 C65.0828125 28.0928125 65.0828125 28.0928125 66.1875 28.1875 C70.21839055 29.35197949 71.6064786 30.51229739 74 34 C74.8251124 38.71304203 75.07737799 43.50423906 73.1484375 47.97265625 C69.54324599 52.76731571 63.91201057 55.44602115 58.15356445 56.54150391 C52.55935532 57.29944271 46.91863592 57.12267993 41.28515625 57.09765625 C40.21100464 57.09664917 39.13685303 57.09564209 38.03015137 57.09460449 C34.04092329 57.08939644 30.0517105 57.07543526 26.0625 57.0625 C12.6665625 57.0315625 12.6665625 57.0315625 -1 57 C-0.67 38.19 -0.34 19.38 0 0 Z M27 14 C27 15.98 27 17.96 27 20 C32.28 20 37.56 20 43 20 C43.33 18.68 43.66 17.36 44 16 C40.40537669 13.74001405 37.43404325 13.79131913 33.25 13.875 C32.07953125 13.89304687 30.9090625 13.91109375 29.703125 13.9296875 C28.81109375 13.95289063 27.9190625 13.97609375 27 14 Z M27 35 C27 37.31 27 39.62 27 42 C29.60444348 42.05394705 32.20776998 42.09364469 34.8125 42.125 C35.91948242 42.15013672 35.91948242 42.15013672 37.04882812 42.17578125 C40.91246426 42.21074628 42.70903668 42.19397555 46 40 C45.73323796 38.01508358 45.73323796 38.01508358 45 36 C41.38132441 34.7937748 38.07493749 34.89183082 34.3125 34.9375 C33.61060547 34.94201172 32.90871094 34.94652344 32.18554688 34.95117188 C30.45699462 34.96293073 28.72848635 34.98086546 27 35 Z " fill="#83AED2" transform="translate(211,2)"/>
<path d="M0 0 C7.6725 -0.061875 15.345 -0.12375 23.25 -0.1875 C25.64668945 -0.21481201 28.04337891 -0.24212402 30.51269531 -0.27026367 C32.45116678 -0.2790404 34.38964386 -0.28668151 36.328125 -0.29296875 C37.79064697 -0.3159906 37.79064697 -0.3159906 39.28271484 -0.33947754 C51.86189327 -0.34416427 63.96006452 2.76040036 73.4609375 11.28515625 C78.28010195 16.65473288 80.37377594 23.42207126 80.28125 30.5234375 C79.51782675 37.24580333 76.23069125 42.79270486 71 47 C59.57545724 54.83683547 49.04075318 57.17041624 35.3515625 57.09765625 C34.45332764 57.09664917 33.55509277 57.09564209 32.62963867 57.09460449 C29.29474601 57.08939768 25.95987164 57.07543651 22.625 57.0625 C15.15875 57.041875 7.6925 57.02125 0 57 C0 38.19 0 19.38 0 0 Z M29 15 C29 23.91 29 32.82 29 42 C37.44256011 42.34642564 37.44256011 42.34642564 44 39 C47.89538781 34.68348918 49.37381624 32.00391637 49.27734375 26.09765625 C48.81370299 22.59096486 47.30716755 20.61074223 45 18 C39.39483015 13.99630725 36.69124138 15 29 15 Z " fill="#82AFD3" transform="translate(125,2)"/>
<path d="M0 0 C8.745 -0.04125 17.49 -0.0825 26.5 -0.125 C29.24634766 -0.14320801 31.99269531 -0.16141602 34.82226562 -0.18017578 C37.0169251 -0.18602104 39.21158675 -0.19111652 41.40625 -0.1953125 C42.5312793 -0.20554443 43.65630859 -0.21577637 44.81542969 -0.22631836 C54.59544862 -0.22847635 64.09446459 0.96556309 71.80078125 7.53515625 C75.88542959 11.81477587 77.09390253 15.08414036 77 21 C75.2461121 26.48089968 71.67166132 29.84826043 67 33 C58.72889726 37.19242536 49.645549 37.20201465 40.5625 37.5625 C39.54478516 37.60568359 38.52707031 37.64886719 37.47851562 37.69335938 C34.98580664 37.79868511 32.49291914 37.89977143 30 38 C30 44.27 30 50.54 30 57 C20.1 57 10.2 57 0 57 C0 38.19 0 19.38 0 0 Z M29 15 C29 17.31 29 19.62 29 22 C34.28 22 39.56 22 45 22 C45.66 20.68 46.32 19.36 47 18 C46.67 17.34 46.34 16.68 46 16 C42.43954823 14.81318274 39.56191663 14.90310168 35.8125 14.9375 C34.54019531 14.94652344 33.26789063 14.95554687 31.95703125 14.96484375 C30.98121094 14.97644531 30.00539063 14.98804688 29 15 Z " fill="#84B0D4" transform="translate(44,2)"/>
<path d="M0 0 C1.98 0 3.96 0 6 0 C5.67 2.31 5.34 4.62 5 7 C13.3357118 8.48190432 21.6642882 8.48190432 30 7 C29.67 4.69 29.34 2.38 29 0 C30.66611905 -0.042721 32.33382885 -0.04063832 34 0 C35 1 35 1 35.4375 4.8125 C35.35756741 8.24345258 35.20253615 8.78058584 32.75 11.4375 C28.00843334 14.03734452 22.28013788 13.82912175 17 14 C17 14.66 17 15.32 17 16 C17.66 16 18.32 16 19 16 C19 16.66 19 17.32 19 18 C19.98742187 17.566875 20.97484375 17.13375 21.9921875 16.6875 C23.28637554 16.12480955 24.58065093 15.56231995 25.875 15 C26.52597656 14.71382812 27.17695313 14.42765625 27.84765625 14.1328125 C32.7734375 12 32.7734375 12 35 12 C35 13.65 35 15.3 35 17 C32.03 18.32 29.06 19.64 26 21 C28.97 21.33 31.94 21.66 35 22 C35 23.65 35 25.3 35 27 C23.45 27 11.9 27 0 27 C0 17 0 17 2.5 13.875 C3.325 13.25625 4.15 12.6375 5 12 C4.175 11.690625 3.35 11.38125 2.5 11.0625 C0 9 0 9 -0.33203125 6.796875 C-0.31408275 4.51382601 -0.2143984 2.27262304 0 0 Z M6 18 C5.67 19.32 5.34 20.64 5 22 C7.97 22 10.94 22 14 22 C13.67 20.68 13.34 19.36 13 18 C10.69 18 8.38 18 6 18 Z " fill="#8BB5D7" transform="translate(2,32)"/>
<path d="M0 0 C0.33 -0.33 0.66 -0.66 1 -1 C2.93331809 -1.15209159 4.87341284 -1.22186331 6.8125 -1.25 C7.87082031 -1.27578125 8.92914062 -1.3015625 10.01953125 -1.328125 C13 -1 13 -1 17 2 C17 5.3 17 8.6 17 12 C5.45 12 -6.1 12 -18 12 C-18 8.7 -18 5.4 -18 2 C-11.72198181 -1.67493747 -6.93413349 -1.42761572 0 0 Z M1 5 C1 5.66 1 6.32 1 7 C4.63 7 8.26 7 12 7 C11.34 5.68 10.68 4.36 10 3 C5.2102679 2.76571687 5.2102679 2.76571687 1 5 Z M-13 4 C-13 4.99 -13 5.98 -13 7 C-9.7 7 -6.4 7 -3 7 C-3.33 6.01 -3.66 5.02 -4 4 C-6.97 4 -9.94 4 -13 4 Z " fill="#81AED3" transform="translate(20,3)"/>
<path d="M0 0 C3.0625 1.4375 3.0625 1.4375 5 4 C5.4535621 7.0522061 5.43369074 9.94557807 5 13 C4 14 4 14 0.9375 14.0625 C-0.031875 14.041875 -1.00125 14.02125 -2 14 C-1.67 11.36 -1.34 8.72 -1 6 C-4.24606681 5.41338532 -4.24606681 5.41338532 -8 6 C-9.8675776 7.64414281 -11.26341158 9.37092804 -12.73828125 11.37109375 C-14 13 -14 13 -16 14 C-18.2421875 14.203125 -18.2421875 14.203125 -20.875 14.25 C-22.17050781 14.28867187 -22.17050781 14.28867187 -23.4921875 14.328125 C-26.55121728 13.92787811 -27.87390491 13.22897066 -30 11 C-30.390625 8.73828125 -30.390625 8.73828125 -30.25 6.3125 C-30.21390625 5.50425781 -30.1778125 4.69601563 -30.140625 3.86328125 C-30.09421875 3.24839844 -30.0478125 2.63351563 -30 2 C-26.535 1.505 -26.535 1.505 -23 1 C-24 5 -24 5 -25 9 C-22.21061788 9.41890218 -22.21061788 9.41890218 -19 9 C-16.35426499 6.77122275 -16.35426499 6.77122275 -14 4 C-9.69390581 -0.42570792 -5.92887821 -1.01852338 0 0 Z " fill="#9FC1DE" transform="translate(32,17)"/>
<path d="M0 0 C0.495 1.485 0.495 1.485 1 3 C-8.18005479 8.94003545 -17.84282715 9.14202177 -28.4375 9.5625 C-29.45521484 9.60568359 -30.47292969 9.64886719 -31.52148438 9.69335938 C-34.01419336 9.79868511 -36.50708086 9.89977143 -39 10 C-39 16.27 -39 22.54 -39 29 C-48.57 29 -58.14 29 -68 29 C-68 28.34 -68 27.68 -68 27 C-59.42 27 -50.84 27 -42 27 C-42 20.4 -42 13.8 -42 7 C-40.45570312 6.95101562 -38.91140625 6.90203125 -37.3203125 6.8515625 C-35.25519281 6.77646724 -33.19008944 6.70092241 -31.125 6.625 C-29.60519531 6.57859375 -29.60519531 6.57859375 -28.0546875 6.53125 C-19.73355549 6.21120646 -11.47217501 5.55105243 -3.875 1.875 C-3.12992187 1.52179687 -2.38484375 1.16859375 -1.6171875 0.8046875 C-1.08351563 0.53914063 -0.54984375 0.27359375 0 0 Z " fill="#6D8395" transform="translate(113,30)"/>
<path d="M0 0 C0.66 0.33 1.32 0.66 2 1 C1.01 3.31 0.02 5.62 -1 8 C-0.34 7.67 0.32 7.34 1 7 C2.49756871 6.90500497 3.99942932 6.87012802 5.5 6.875 C6.69109375 6.87113281 6.69109375 6.87113281 7.90625 6.8671875 C10 7 10 7 12 8 C12.33 6.35 12.66 4.7 13 3 C13.33 3.66 13.66 4.32 14 5 C15.98 4.34 17.96 3.68 20 3 C19.67 3.99 19.34 4.98 19 6 C18.01 6.33 17.02 6.66 16 7 C20.95 7 25.9 7 31 7 C31 8.65 31 10.3 31 12 C19.45 12 7.9 12 -4 12 C-4 4 -4 4 -2 1.5 C-1.34 1.005 -0.68 0.51 0 0 Z " fill="#7DACD2" transform="translate(6,47)"/>
<path d="M0 0 C0.33 0 0.66 0 1 0 C1.35423257 4.42790712 1.34900032 7.81196788 -1.421875 11.4609375 C-12.39866754 22.16602725 -26.70600407 25.17736774 -41.4296875 25.09765625 C-42.915186 25.09553383 -42.915186 25.09553383 -44.43069458 25.09336853 C-47.57882773 25.08779252 -50.72688852 25.07524442 -53.875 25.0625 C-56.01562397 25.0574819 -58.15624906 25.05291954 -60.296875 25.04882812 C-65.53127449 25.03783094 -70.76563207 25.02111675 -76 25 C-76 24.34 -76 23.68 -76 23 C-74.82083008 22.98018066 -73.64166016 22.96036133 -72.42675781 22.93994141 C-67.99833949 22.86313319 -63.57021805 22.77454022 -59.14208984 22.68261719 C-57.2355745 22.64463495 -55.32899497 22.60973209 -53.42236328 22.578125 C-27.62831088 22.52806085 -27.62831088 22.52806085 -5.40234375 10.7578125 C-2.83382947 7.53822635 -1.3780071 3.85157265 0 0 Z " fill="#697F92" transform="translate(202,34)"/>
<path d="M0 0 C0.33 -0.33 0.66 -0.66 1 -1 C3.01964199 -1.07244053 5.04167124 -1.08377188 7.0625 -1.0625 C8.16722656 -1.05347656 9.27195312 -1.04445312 10.41015625 -1.03515625 C11.26480469 -1.02355469 12.11945312 -1.01195313 13 -1 C12.34 -0.34 11.68 0.32 11 1 C8.8359375 0.9765625 8.8359375 0.9765625 6.375 0.625 C5.55773437 0.51414063 4.74046875 0.40328125 3.8984375 0.2890625 C3.27195312 0.19367187 2.64546875 0.09828125 2 0 C2 0.66 2 1.32 2 2 C3.65 2 5.3 2 7 2 C6.01 2.66 5.02 3.32 4 4 C3.01 4.99 2.02 5.98 1 7 C4.63 7 8.26 7 12 7 C10.68 5.35 9.36 3.7 8 2 C10.86724686 2.57344937 11.8614515 2.8614515 14 5 C14 5.99 14 6.98 14 8 C9.38 8 4.76 8 0 8 C0 6.35 0 4.7 0 3 C-2.64 2.67 -5.28 2.34 -8 2 C-6.7934375 2.3403125 -6.7934375 2.3403125 -5.5625 2.6875 C-4.716875 3.120625 -3.87125 3.55375 -3 4 C-2.67 5.65 -2.34 7.3 -2 9 C-5.96 9 -9.92 9 -14 9 C-14.33 7.68 -14.66 6.36 -15 5 C-15.99 5 -16.98 5 -18 5 C-18 4.01 -18 3.02 -18 2 C-11.72198181 -1.67493747 -6.93413349 -1.42761572 0 0 Z M-13 4 C-13 4.99 -13 5.98 -13 7 C-9.7 7 -6.4 7 -3 7 C-3.33 6.01 -3.66 5.02 -4 4 C-6.97 4 -9.94 4 -13 4 Z " fill="#AECBE2" transform="translate(20,3)"/>
<path d="M0 0 C3.3125 -0.3125 3.3125 -0.3125 7 0 C8.9375 2.5 8.9375 2.5 10 5 C10 4.01 10 3.02 10 2 C10 1.34 10 0.68 10 0 C11.98 0 13.96 0 16 0 C15.67 0.99 15.34 1.98 15 3 C14.93197033 4.72795352 14.91504355 6.45835365 14.9375 8.1875 C14.95103516 9.53908203 14.95103516 9.53908203 14.96484375 10.91796875 C14.97644531 11.60503906 14.98804687 12.29210937 15 13 C10.75074742 12.21007484 8.91089135 10.15346563 6 7 C5.67 8.32 5.34 9.64 5 11 C5.66 11 6.32 11 7 11 C7 11.66 7 12.32 7 13 C4.69 13 2.38 13 0 13 C0 12.34 0 11.68 0 11 C0.66 11 1.32 11 2 11 C2 8.36 2 5.72 2 3 C1.34 2.67 0.68 2.34 0 2 C0 1.34 0 0.68 0 0 Z " fill="#667C8E" transform="translate(101,65)"/>
<path d="M0 0 C3.25 -0.3125 3.25 -0.3125 7 0 C9.4375 2.5 9.4375 2.5 11 5 C11.33 4.01 11.66 3.02 12 2 C11.34 2 10.68 2 10 2 C10 1.34 10 0.68 10 0 C12.31 0 14.62 0 17 0 C17 0.66 17 1.32 17 2 C16.34 2 15.68 2 15 2 C15 5.63 15 9.26 15 13 C11 13 11 13 9.515625 11.6875 C8.34375 10.125 7.171875 8.5625 6 7 C5.67 8.32 5.34 9.64 5 11 C5.66 11 6.32 11 7 11 C7 11.66 7 12.32 7 13 C4.69 13 2.38 13 0 13 C0 12.34 0 11.68 0 11 C0.66 11 1.32 11 2 11 C2.04125 9.741875 2.0825 8.48375 2.125 7.1875 C2.14820313 6.47980469 2.17140625 5.77210937 2.1953125 5.04296875 C2.13254462 2.68640281 2.13254462 2.68640281 0 0 Z " fill="#6D8293" transform="translate(249,65)"/>
<path d="M0 0 C1.98 0 3.96 0 6 0 C5.67 2.31 5.34 4.62 5 7 C7.31 7.33 9.62 7.66 12 8 C12 8.66 12 9.32 12 10 C9.03 9.505 9.03 9.505 6 9 C6 9.66 6 10.32 6 11 C7.65 11.33 9.3 11.66 11 12 C11 13.32 11 14.64 11 16 C11.639375 16.226875 12.27875 16.45375 12.9375 16.6875 C15 18 15 18 15.75 20.625 C15.8325 21.40875 15.915 22.1925 16 23 C15.34 23 14.68 23 14 23 C13.67 21.68 13.34 20.36 13 19 C10.69 19 8.38 19 6 19 C5.67 20.32 5.34 21.64 5 23 C4.34 23 3.68 23 3 23 C3.165 22.21625 3.33 21.4325 3.5 20.625 C4.0623707 18.11791961 4.0623707 18.11791961 4 16 C2.68 16.99 1.36 17.98 0 19 C1.29299694 16.11562221 2.65941363 14.12780579 5 12 C4.175 11.690625 3.35 11.38125 2.5 11.0625 C0 9 0 9 -0.33203125 6.796875 C-0.31408275 4.51382601 -0.2143984 2.27262304 0 0 Z " fill="#ABC9E2" transform="translate(2,32)"/>
<path d="M0 0 C2 1.6875 2 1.6875 3 4 C2.87426834 7.0804257 2.45859649 9.19071208 0.9375 11.875 C-2.24293978 13.72170697 -5.48081247 13.62186446 -9 13 C-11.5625 11.4375 -11.5625 11.4375 -13 9 C-13.0625 5.4375 -13.0625 5.4375 -12 2 C-8.16011557 -1.61400887 -4.92775333 -1.36882037 0 0 Z M-6 1 C-8.31563087 2.88500271 -8.31563087 2.88500271 -8.25 6 C-8.31563087 9.11499729 -8.31563087 9.11499729 -6 11 C-5.01 11 -4.02 11 -3 11 C-1.64560332 8.29120665 -1.93498549 5.99066732 -2 3 C-3.32 2.34 -4.64 1.68 -6 1 Z " fill="#9BA9B5" transform="translate(48,65)"/>
<path d="M0 0 C4.62 0 9.24 0 14 0 C14 0.66 14 1.32 14 2 C13.01 2.33 12.02 2.66 11 3 C10.26676204 5.01508358 10.26676204 5.01508358 10 7 C10.825 7.61875 11.65 8.2375 12.5 8.875 C13.325 9.57625 14.15 10.2775 15 11 C15 11.66 15 12.32 15 13 C10.05 13 5.1 13 0 13 C0 12.34 0 11.68 0 11 C0.66 11 1.32 11 2 11 C1.85892253 9.54119891 1.71197585 8.08296449 1.5625 6.625 C1.48128906 5.81289062 1.40007812 5.00078125 1.31640625 4.1640625 C1.10909886 1.95727195 1.10909886 1.95727195 0 0 Z " fill="#8395A3" transform="translate(270,65)"/>
<path d="M0 0 C1.93681161 -0.08107583 3.8745934 -0.13922475 5.8125 -0.1875 C6.89144531 -0.22230469 7.97039062 -0.25710937 9.08203125 -0.29296875 C12 0 12 0 13.859375 1.29296875 C15.79602367 4.1913094 15.41980773 6.64153818 15 10 C12.74494167 12.30787 11.43027538 12.95492925 8.203125 13.29296875 C7.22859375 13.25816406 6.2540625 13.22335938 5.25 13.1875 C4.26515625 13.16042969 3.2803125 13.13335937 2.265625 13.10546875 C1.51796875 13.07066406 0.7703125 13.03585938 0 13 C0 12.34 0 11.68 0 11 C0.66 11 1.32 11 2 11 C2 8.03 2 5.06 2 2 C1.34 2 0.68 2 0 2 C0 1.34 0 0.68 0 0 Z M6 2 C6 4.97 6 7.94 6 11 C7.32 10.67 8.64 10.34 10 10 C10.78282648 8.20800528 10.78282648 8.20800528 11 6 C9.78469266 3.71252627 9.78469266 3.71252627 8 2 C7.34 2 6.68 2 6 2 Z " fill="#6C8192" transform="translate(132,65)"/>
<path d="M0 0 C3.63 0 7.26 0 11 0 C11.84964745 4.24823725 12.16499805 7.71005077 12 12 C11 13 11 13 8.49609375 13.09765625 C6.98208984 13.08025391 6.98208984 13.08025391 5.4375 13.0625 C4.42558594 13.05347656 3.41367188 13.04445313 2.37109375 13.03515625 C1.58863281 13.02355469 0.80617187 13.01195313 0 13 C0 12.34 0 11.68 0 11 C0.66 11 1.32 11 2 11 C2 8.03 2 5.06 2 2 C1.34 2 0.68 2 0 2 C0 1.34 0 0.68 0 0 Z M6 2 C6.33 2.99 6.66 3.98 7 5 C7 4.01 7 3.02 7 2 C6.67 2 6.34 2 6 2 Z M6 7 C6 8.32 6 9.64 6 11 C6.99 10.67 7.98 10.34 9 10 C8.01 9.01 7.02 8.02 6 7 Z " fill="#728696" transform="translate(214,65)"/>
<path d="M0 0 C0 0.66 0 1.32 0 2 C-3.54249487 2.80821835 -6.80240693 3.12218996 -10.43286133 3.11352539 C-11.49358353 3.11344986 -12.55430573 3.11337433 -13.64717102 3.11329651 C-15.34742683 3.10555458 -15.34742683 3.10555458 -17.08203125 3.09765625 C-18.25134689 3.0962413 -19.42066254 3.09482635 -20.62541199 3.09336853 C-24.35446751 3.08777793 -28.08346267 3.07522709 -31.8125 3.0625 C-34.34309809 3.05748379 -36.87369712 3.05292109 -39.40429688 3.04882812 C-45.60288513 3.03781157 -51.80143825 3.02108273 -58 3 C-58 2.34 -58 1.68 -58 1 C-51.18646918 0.85626901 -44.37290868 0.71401286 -37.55932617 0.57275391 C-35.24421501 0.5245864 -32.92911069 0.47608849 -30.61401367 0.42724609 C-27.2752456 0.35686552 -23.93645422 0.28769601 -20.59765625 0.21875 C-19.57229263 0.19687622 -18.54692902 0.17500244 -17.49049377 0.15246582 C-11.65879572 0.03336905 -5.83291779 -0.02112419 0 0 Z " fill="#657C8E" transform="translate(270,56)"/>
<path d="M0 0 C1.45792884 -0.05399736 2.91642712 -0.09279177 4.375 -0.125 C5.18710937 -0.14820312 5.99921875 -0.17140625 6.8359375 -0.1953125 C9 0 9 0 11 2 C10.625 5.125 10.625 5.125 10 8 C11.2375 8.680625 11.2375 8.680625 12.5 9.375 C13.325 9.91125 14.15 10.4475 15 11 C15 11.66 15 12.32 15 13 C10.05 13 5.1 13 0 13 C0.33 12.01 0.66 11.02 1 10 C1.13156527 6.31617231 1.16982138 3.50946415 0 0 Z M5 2 C5 2.99 5 3.98 5 5 C5.66 5 6.32 5 7 5 C6.67 4.01 6.34 3.02 6 2 C5.67 2 5.34 2 5 2 Z M5 8 C5 8.99 5 9.98 5 11 C5.66 10.67 6.32 10.34 7 10 C6.34 9.34 5.68 8.68 5 8 Z " fill="#92A1AE" transform="translate(18,65)"/>
<path d="M0 0 C2.64 0 5.28 0 8 0 C8.144375 1.093125 8.28875 2.18625 8.4375 3.3125 C8.88288104 6.93122987 8.88288104 6.93122987 10 10 C10.66 10.33 11.32 10.66 12 11 C12 11.66 12 12.32 12 13 C9.36 13 6.72 13 4 13 C4.33 11.35 4.66 9.7 5 8 C4.01 8.495 4.01 8.495 3 9 C3 10.32 3 11.64 3 13 C0.69 13 -1.62 13 -4 13 C-4 12.34 -4 11.68 -4 11 C-3.34 11 -2.68 11 -2 11 C-1.664061 9.5422647 -1.33133376 8.08378894 -1 6.625 C-0.814375 5.81289062 -0.62875 5.00078125 -0.4375 4.1640625 C0.06605239 2.04125049 0.06605239 2.04125049 0 0 Z " fill="#8093A1" transform="translate(234,65)"/>
<path d="M0 0 C2.31 0 4.62 0 7 0 C7.19335938 0.71027344 7.38671875 1.42054687 7.5859375 2.15234375 C7.84632813 3.07144531 8.10671875 3.99054688 8.375 4.9375 C8.63023437 5.85402344 8.88546875 6.77054687 9.1484375 7.71484375 C9.76660104 10.16745087 9.76660104 10.16745087 12 11 C12 11.66 12 12.32 12 13 C9.36 13 6.72 13 4 13 C4 11.68 4 10.36 4 9 C3.34 8.67 2.68 8.34 2 8 C2 9.65 2 11.3 2 13 C-0.31 13 -2.62 13 -5 13 C-5 12.34 -5 11.68 -5 11 C-4.01 11 -3.02 11 -2 11 C-1.664061 9.5422647 -1.33133376 8.08378894 -1 6.625 C-0.814375 5.81289062 -0.62875 5.00078125 -0.4375 4.1640625 C0.06605239 2.04125049 0.06605239 2.04125049 0 0 Z " fill="#AAB6C0" transform="translate(189,65)"/>
<path d="M0 0 C2.31 0 4.62 0 7 0 C7.10957031 0.60328125 7.21914062 1.2065625 7.33203125 1.828125 C7.49058594 2.62734375 7.64914063 3.4265625 7.8125 4.25 C7.96332031 5.03890625 8.11414063 5.8278125 8.26953125 6.640625 C8.99947384 9.46673846 8.99947384 9.46673846 12 13 C6.72 13 1.44 13 -4 13 C-4 12.34 -4 11.68 -4 11 C-3.34 11 -2.68 11 -2 11 C-0.98617037 7.3791799 -0.50102309 3.72188582 0 0 Z M2 8 C1.67 8.99 1.34 9.98 1 11 C2.32 11 3.64 11 5 11 C4.67 10.01 4.34 9.02 4 8 C3.34 8 2.68 8 2 8 Z " fill="#AFBAC3" transform="translate(155,65)"/>
<path d="M0 0 C-0.33 3.3 -0.66 6.6 -1 10 C-0.34 10 0.32 10 1 10 C0.67 11.32 0.34 12.64 0 14 C-3.63 14 -7.26 14 -11 14 C-11 13.34 -11 12.68 -11 12 C-10.34 12 -9.68 12 -9 12 C-9 9.03 -9 6.06 -9 3 C-9.66 3 -10.32 3 -11 3 C-11 2.34 -11 1.68 -11 1 C-9.54182203 0.83197949 -8.0834516 0.66562857 -6.625 0.5 C-5.81289062 0.4071875 -5.00078125 0.314375 -4.1640625 0.21875 C-2 0 -2 0 0 0 Z M-5 3 C-5 3.99 -5 4.98 -5 6 C-4.34 6 -3.68 6 -3 6 C-2.67 5.01 -2.34 4.02 -2 3 C-2.99 3 -3.98 3 -5 3 Z M-5 8 C-5 9.32 -5 10.64 -5 12 C-3.68 11.67 -2.36 11.34 -1 11 C-1.66 10.67 -2.32 10.34 -3 10 C-3 9.34 -3 8.68 -3 8 C-3.66 8 -4.32 8 -5 8 Z " fill="#516A7E" transform="translate(83,64)"/>
<path d="M0 0 C7.71484375 -0.09765625 7.71484375 -0.09765625 10 0 C11 1 11 1 11.375 3.875 C11.25125 4.90625 11.1275 5.9375 11 7 C8.5 8.875 8.5 8.875 6 10 C6.66 10.33 7.32 10.66 8 11 C8 11.66 8 12.32 8 13 C5.36 13 2.72 13 0 13 C0 8.71 0 4.42 0 0 Z M5 2 C5 3.65 5 5.3 5 7 C5.99 6.67 6.98 6.34 8 6 C7.34 4.68 6.68 3.36 6 2 C5.67 2 5.34 2 5 2 Z " fill="#39566C" transform="translate(1,65)"/>
<path d="M0 0 C4.29 0 8.58 0 13 0 C13 1.65 13 3.3 13 5 C12.01 5 11.02 5 10 5 C10 4.34 10 3.68 10 3 C9.34 3 8.68 3 8 3 C8 5.97 8 8.94 8 12 C8.66 12 9.32 12 10 12 C10 12.66 10 13.32 10 14 C7.36 14 4.72 14 2 14 C2 13.34 2 12.68 2 12 C2.66 12 3.32 12 4 12 C4.33 9.03 4.66 6.06 5 3 C3.02 3.66 1.04 4.32 -1 5 C-0.67 3.35 -0.34 1.7 0 0 Z " fill="#97A6B1" transform="translate(55,64)"/>
<path d="M0 0 C4.62 0 9.24 0 14 0 C13.67 1.65 13.34 3.3 13 5 C12.34 5 11.68 5 11 5 C11 4.34 11 3.68 11 3 C10.01 3 9.02 3 8 3 C8 5.97 8 8.94 8 12 C8.99 12 9.98 12 11 12 C11 12.66 11 13.32 11 14 C8.36 14 5.72 14 3 14 C3 13.34 3 12.68 3 12 C3.66 12 4.32 12 5 12 C5 9.03 5 6.06 5 3 C3.02 3.66 1.04 4.32 -1 5 C-0.67 3.35 -0.34 1.7 0 0 Z " fill="#8193A2" transform="translate(169,64)"/>
<path d="M0 0 C0 1.65 0 3.3 0 5 C-2.09836004 6.03271642 -4.20390891 7.05083717 -6.3125 8.0625 C-7.48425781 8.63097656 -8.65601563 9.19945312 -9.86328125 9.78515625 C-13 11 -13 11 -16 10 C-15.360625 9.71125 -14.72125 9.4225 -14.0625 9.125 C-11.84793921 8.17176549 -11.84793921 8.17176549 -11 6 C-12.98 6.66 -14.96 7.32 -17 8 C-17.33 6.68 -17.66 5.36 -18 4 C-17.34 4 -16.68 4 -16 4 C-16 4.66 -16 5.32 -16 6 C-15.01257813 5.566875 -14.02515625 5.13375 -13.0078125 4.6875 C-11.71362446 4.12480955 -10.41934907 3.56231995 -9.125 3 C-8.14853516 2.57074219 -8.14853516 2.57074219 -7.15234375 2.1328125 C-2.2265625 0 -2.2265625 0 0 0 Z " fill="#A3C4DF" transform="translate(37,44)"/>
<path d="M0 0 C1.66611905 -0.042721 3.33382885 -0.04063832 5 0 C6 1 6 1 6.4375 4.8125 C6.41796875 6.984375 6.41796875 6.984375 6 9 C3.25 11.5625 3.25 11.5625 0 13 C-2.375 12.75 -2.375 12.75 -4 12 C-3.67 11.34 -3.34 10.68 -3 10 C-3.99 10 -4.98 10 -6 10 C-6 9.34 -6 8.68 -6 8 C-2.535 7.505 -2.535 7.505 1 7 C0.67 4.69 0.34 2.38 0 0 Z " fill="#AECBE3" transform="translate(31,32)"/>
<path d="M0 0 C5.45805856 0.2227779 8.43838513 1.4397399 12.42578125 5.203125 C17.3264688 10.79696191 18.66244645 16.70884324 19 24 C18.01 24.33 17.02 24.66 16 25 C15.9484375 24.23816406 15.896875 23.47632812 15.84375 22.69140625 C14.92240984 14.30511688 12.46592076 9.46011086 6 4 C3.98786288 2.68112021 2.2638217 1.84893314 0 1 C0 0.67 0 0.34 0 0 Z " fill="#7B92A5" transform="translate(186,8)"/>
<path d="M0 0 C4.15279896 -0.4152799 7.04848801 -0.41253023 10.4375 2.0625 C13 5 13 5 13.4375 8.75 C13 12 13 12 12 13 C10.00041636 13.04080783 7.99954746 13.04254356 6 13 C6.29296875 10.98177083 6.5859375 8.96354167 6.87890625 6.9453125 C7.1684297 4.91859333 7.1684297 4.91859333 6 3 C3.69 3 1.38 3 -1 3 C-0.67 2.01 -0.34 1.02 0 0 Z " fill="#A2C3DE" transform="translate(24,18)"/>
<path d="M0 0 C2.64 0 5.28 0 8 0 C7.34 3.63 6.68 7.26 6 11 C6.66 11 7.32 11 8 11 C8 11.66 8 12.32 8 13 C5.36 13 2.72 13 0 13 C0 12.34 0 11.68 0 11 C0.66 11 1.32 11 2 11 C2 8.03 2 5.06 2 2 C1.34 2 0.68 2 0 2 C0 1.34 0 0.68 0 0 Z " fill="#7F91A0" transform="translate(88,65)"/>
<path d="M0 0 C10.125 0 10.125 0 16 2 C16 2.33 16 2.66 16 3 C11.38 3 6.76 3 2 3 C1.67 12.24 1.34 21.48 1 31 C0.67 31 0.34 31 0 31 C0 20.77 0 10.54 0 0 Z " fill="#537087" transform="translate(152,14)"/>
<path d="M0 0 C3.27132607 -0.08081043 6.54066421 -0.14040709 9.8125 -0.1875 C10.74126953 -0.21263672 11.67003906 -0.23777344 12.62695312 -0.26367188 C13.9659668 -0.27817383 13.9659668 -0.27817383 15.33203125 -0.29296875 C16.56530151 -0.31653442 16.56530151 -0.31653442 17.82348633 -0.34057617 C20 0 20 0 23 3 C16.07 2.67 9.14 2.34 2 2 C2 4.64 2 7.28 2 10 C1.01 10.495 1.01 10.495 0 11 C0 7.37 0 3.74 0 0 Z " fill="#7F97A9" transform="translate(235,35)"/>
<path d="M0 0 C2.91722548 -0.08103404 5.83219516 -0.14051081 8.75 -0.1875 C9.575 -0.21263672 10.4 -0.23777344 11.25 -0.26367188 C17.42297754 -0.33834499 17.42297754 -0.33834499 20.578125 1.51171875 C21.28195313 2.24841797 21.28195313 2.24841797 22 3 C21.67 4.32 21.34 5.64 21 7 C20.67 6.01 20.34 5.02 20 4 C16.48339 2.57457799 12.49541288 2.68025824 8.75 2.4375 C7.48671875 2.35371094 6.2234375 2.26992188 4.921875 2.18359375 C3.95765625 2.12300781 2.9934375 2.06242187 2 2 C2.04125 3.11375 2.0825 4.2275 2.125 5.375 C2 9 2 9 0 11 C0 7.37 0 3.74 0 0 Z " fill="#3E5A71" transform="translate(71,15)"/>
<path d="M0 0 C2.91691525 -0.05401695 5.83282724 -0.09368066 8.75 -0.125 C9.575 -0.14175781 10.4 -0.15851562 11.25 -0.17578125 C12.04921875 -0.18222656 12.8484375 -0.18867188 13.671875 -0.1953125 C14.4050293 -0.20578613 15.13818359 -0.21625977 15.89355469 -0.22705078 C18.29896076 0.03222456 19.91251494 0.80774075 22 2 C21.67 2.66 21.34 3.32 21 4 C20.67 3.67 20.34 3.34 20 3 C17.14122091 2.76298761 14.30116703 2.57780818 11.4375 2.4375 C10.63119141 2.39431641 9.82488281 2.35113281 8.99414062 2.30664062 C6.99631195 2.20024738 4.9981793 2.09959112 3 2 C3.020625 2.94875 3.04125 3.8975 3.0625 4.875 C3 8 3 8 2 10 C1.34 10 0.68 10 0 10 C0 6.7 0 3.4 0 0 Z " fill="#617B90" transform="translate(235,14)"/>
<path d="M0 0 C0.86882813 0.17144531 1.73765625 0.34289062 2.6328125 0.51953125 C4.875 1.1875 4.875 1.1875 6.875 3.1875 C6.875 4.5075 6.875 5.8275 6.875 7.1875 C2.915 7.1875 -1.045 7.1875 -5.125 7.1875 C-5.455 5.8675 -5.785 4.5475 -6.125 3.1875 C-7.115 3.1875 -8.105 3.1875 -9.125 3.1875 C-9.125 2.1975 -9.125 1.2075 -9.125 0.1875 C-5.78855017 -0.90654518 -3.4184212 -0.70919485 0 0 Z M-4.125 2.1875 C-4.125 3.1775 -4.125 4.1675 -4.125 5.1875 C-0.825 5.1875 2.475 5.1875 5.875 5.1875 C5.545 4.1975 5.215 3.2075 4.875 2.1875 C1.905 2.1875 -1.065 2.1875 -4.125 2.1875 Z " fill="#A2C3DE" transform="translate(11.125,4.8125)"/>
<path d="M0 0 C2 1 2 1 4 3 C4.83934729 9.19018625 3.65624715 13.89771298 0 19 C-2.625 20.9375 -2.625 20.9375 -5 22 C-5.66 22.33 -6.32 22.66 -7 23 C-8.87379605 23.07033769 -10.75001102 23.0843022 -12.625 23.0625 C-13.62789062 23.05347656 -14.63078125 23.04445313 -15.6640625 23.03515625 C-16.43492187 23.02355469 -17.20578125 23.01195313 -18 23 C-18 22.67 -18 22.34 -18 22 C-17.41992188 21.96261719 -16.83984375 21.92523438 -16.2421875 21.88671875 C-9.74118697 21.33960484 -5.12225506 20.40149914 -0.625 15.3125 C1.84592702 10.27561031 1.79544625 5.38633876 0 0 Z " fill="#D7E6F6" transform="translate(172,22)"/>
<path d="M0 0 C3.0625 2 3.0625 2 5 4 C4.67 4.66 4.34 5.32 4 6 C2.9790625 5.0409375 2.9790625 5.0409375 1.9375 4.0625 C-1.46408839 1.6741507 -3.90433701 1.32122847 -8 1 C-7.67 1.66 -7.34 2.32 -7 3 C-5.35 3 -3.7 3 -2 3 C-1.67 3.66 -1.34 4.32 -1 5 C-2.093125 5.12375 -3.18625 5.2475 -4.3125 5.375 C-8.07381802 5.75464801 -8.07381802 5.75464801 -11 8 C-11 7.01 -11 6.02 -11 5 C-11.99 5.33 -12.98 5.66 -14 6 C-11.18135819 -0.50455803 -6.47889654 -0.97580578 0 0 Z " fill="#BAD2E7" transform="translate(32,17)"/>
<path d="M0 0 C0.33 0.66 0.66 1.32 1 2 C1.928125 2.4640625 1.928125 2.4640625 2.875 2.9375 C5.05810535 4.02905268 6.37010468 5.20711515 8 7 C7.67 7.66 7.34 8.32 7 9 C5.68 7.68 4.36 6.36 3 5 C2.67 6.32 2.34 7.64 2 9 C2.66 9 3.32 9 4 9 C4 9.66 4 10.32 4 11 C1.69 11 -0.62 11 -3 11 C-3 10.34 -3 9.68 -3 9 C-2.34 9 -1.68 9 -1 9 C-1.020625 7.700625 -1.04125 6.40125 -1.0625 5.0625 C-1.08399454 3.70834367 -1.07148199 2.35243917 -1 1 C-0.67 0.67 -0.34 0.34 0 0 Z " fill="#A2AFBA" transform="translate(252,67)"/>
<path d="M0 0 C3 1 3 1 5 4 C5 4.99 5 5.98 5 7 C3.68 6.67 2.36 6.34 1 6 C1 6.66 1 7.32 1 8 C1.66 8.33 2.32 8.66 3 9 C3 10.32 3 11.64 3 13 C0.69 13 -1.62 13 -4 13 C-4 12.34 -4 11.68 -4 11 C-3.34 11 -2.68 11 -2 11 C-1.664061 9.5422647 -1.33133376 8.08378894 -1 6.625 C-0.814375 5.81289062 -0.62875 5.00078125 -0.4375 4.1640625 C0.06605239 2.04125049 0.06605239 2.04125049 0 0 Z " fill="#A5B2BC" transform="translate(234,65)"/>
<path d="M0 0 C1.98 0 3.96 0 6 0 C5.67 0.99 5.34 1.98 5 3 C4.93197033 4.72795352 4.91504355 6.45835365 4.9375 8.1875 C4.95103516 9.53908203 4.95103516 9.53908203 4.96484375 10.91796875 C4.97644531 11.60503906 4.98804687 12.29210937 5 13 C4.01 12.67 3.02 12.34 2 12 C2.33 11.01 2.66 10.02 3 9 C2.34 9 1.68 9 1 9 C1.020625 8.071875 1.04125 7.14375 1.0625 6.1875 C1.15769604 2.97713989 1.15769604 2.97713989 0 0 Z " fill="#98A7B2" transform="translate(111,65)"/>
<path d="M0 0 C0.33 0.99 0.66 1.98 1 3 C-5.97542787 7.51351215 -10.95065392 8.32367024 -19 7 C-19 6.67 -19 6.34 -19 6 C-18.38253906 5.90203125 -17.76507813 5.8040625 -17.12890625 5.703125 C-10.93435198 4.60941374 -5.62658881 2.79970361 0 0 Z " fill="#748B9E" transform="translate(113,30)"/>
<path d="M0 0 C2 1.6875 2 1.6875 3 4 C2.6875 7.25 2.6875 7.25 2 10 C1.67 10 1.34 10 1 10 C0.67 7.69 0.34 5.38 0 3 C-5.06768245 1.91214862 -5.06768245 1.91214862 -10 3 C-11.73026102 4.47890069 -11.73026102 4.47890069 -13 6 C-12.14382686 3.28878505 -11.54750525 1.44611539 -9.3125 -0.375 C-5.89597391 -1.29838543 -3.40620817 -0.86703481 0 0 Z " fill="#9FADB8" transform="translate(48,65)"/>
<path d="M0 0 C-0.62759865 2.92879371 -1.58622659 5.36095629 -3 8 C-3.33 7.01 -3.66 6.02 -4 5 C-4.66 5 -5.32 5 -6 5 C-4.60240095 8.54518884 -4.60240095 8.54518884 -3 12 C-4.32 11.34 -5.64 10.68 -7 10 C-7 7.03 -7 4.06 -7 1 C-4.53721199 -0.231394 -2.7204945 -0.07159196 0 0 Z " fill="#C1D7E9" transform="translate(9,18)"/>
<path d="M0 0 C1.98 0 3.96 0 6 0 C6.66 3.96 7.32 7.92 8 12 C7.01 12 6.02 12 5 12 C3.50178941 8.62902617 3 6.79557881 3 3 C2.34 3 1.68 3 1 3 C0.67 2.01 0.34 1.02 0 0 Z " fill="#6B8091" transform="translate(156,65)"/>
<path d="M0 0 C0.1875 2.375 0.1875 2.375 0 5 C-3 7 -3 7 -5.0625 6.6875 C-7 6 -7 6 -9 5 C-9 4.34 -9 3.68 -9 3 C-9.66 3 -10.32 3 -11 3 C-11 2.34 -11 1.68 -11 1 C-9.54182203 0.83197949 -8.0834516 0.66562857 -6.625 0.5 C-5.81289062 0.4071875 -5.00078125 0.314375 -4.1640625 0.21875 C-2 0 -2 0 0 0 Z M-5 3 C-5 3.99 -5 4.98 -5 6 C-4.34 6 -3.68 6 -3 6 C-2.67 5.01 -2.34 4.02 -2 3 C-2.99 3 -3.98 3 -5 3 Z " fill="#96A5B1" transform="translate(83,64)"/>
<path d="M0 0 C2.64 1.32 5.28 2.64 8 4 C8 4.66 8 5.32 8 6 C3.05 6 -1.9 6 -7 6 C-6.67 5.01 -6.34 4.02 -6 3 C-5.67 3.66 -5.34 4.32 -5 5 C-3.68 4.67 -2.36 4.34 -1 4 C-0.67 2.68 -0.34 1.36 0 0 Z " fill="#92A1AE" transform="translate(25,72)"/>
<path d="M0 0 C0.66 0 1.32 0 2 0 C2 3.3 2 6.6 2 10 C2.99 10 3.98 10 5 10 C5 10.66 5 11.32 5 12 C2.36 12 -0.28 12 -3 12 C-3 11.34 -3 10.68 -3 10 C-2.34 10 -1.68 10 -1 10 C-0.67 6.7 -0.34 3.4 0 0 Z " fill="#6D8292" transform="translate(60,66)"/>
<path d="M0 0 C0.33 0 0.66 0 1 0 C1.45760607 5.7200759 0.63848132 8.55296727 -3 13 C-5.25 14.875 -5.25 14.875 -7 16 C-7.66 15.67 -8.32 15.34 -9 15 C-8.60167969 14.50371094 -8.20335937 14.00742187 -7.79296875 13.49609375 C-4.40115025 9.14697367 -1.93684016 5.1649071 0 0 Z " fill="#8D9EAB" transform="translate(202,34)"/>
<path d="M0 0 C1.66611905 -0.042721 3.33382885 -0.04063832 5 0 C6 1 6 1 6.09765625 2.84765625 C6.06510417 4.8984375 6.03255208 6.94921875 6 9 C5.01 9.495 5.01 9.495 4 10 C4 8.68 4 7.36 4 6 C3.01 6.33 2.02 6.66 1 7 C0.67 4.69 0.34 2.38 0 0 Z " fill="#B3CEE4" transform="translate(31,32)"/>
<path d="M0 0 C0.99 0.33 1.98 0.66 3 1 C3 4.63 3 8.26 3 12 C4.65 11.67 6.3 11.34 8 11 C8 11.66 8 12.32 8 13 C5.36 13 2.72 13 0 13 C0 8.71 0 4.42 0 0 Z " fill="#AEBAC3" transform="translate(1,65)"/>
<path d="M0 0 C0.33 0 0.66 0 1 0 C1.4375 2.125 1.4375 2.125 1 5 C-1.98036069 8.68873628 -4.68233337 10.85625455 -9.4375 11.375 C-10.283125 11.25125 -11.12875 11.1275 -12 11 C-10 9 -10 9 -6.5625 7.1875 C-3.21229077 5.34175063 -1.73037371 3.46074741 0 0 Z " fill="#748A9B" transform="translate(283,45)"/>
<path d="M0 0 C0.99 0.33 1.98 0.66 3 1 C4.125 8.625 4.125 8.625 3 12 C0.9375 13.1875 0.9375 13.1875 -1 14 C-0.83628906 13.44828125 -0.67257813 12.8965625 -0.50390625 12.328125 C0.05760414 9.73385993 0.09739008 7.40164589 0.0625 4.75 C0.05347656 3.85796875 0.04445313 2.9659375 0.03515625 2.046875 C0.02355469 1.37140625 0.01195313 0.6959375 0 0 Z " fill="#7D93A4" transform="translate(117,14)"/>
<path d="M0 0 C2.25 0.125 2.25 0.125 5 1 C7.68356569 4.11873851 8.90132297 6.14479906 9.375 10.25 C9 13 9 13 7 15 C7.144375 14.175 7.28875 13.35 7.4375 12.5 C6.85500663 7.84005301 4.70945616 5.94735017 1.53125 2.63671875 C0 1 0 1 0 0 Z " fill="#ACBCCA" transform="translate(275,7)"/>
<path d="M0 0 C2.31 0 4.62 0 7 0 C6.01 0.33 5.02 0.66 4 1 C4 4.3 4 7.6 4 11 C4.66 11.33 5.32 11.66 6 12 C4.68 12 3.36 12 2 12 C1.93941406 11.38511719 1.87882812 10.77023438 1.81640625 10.13671875 C1.73261719 9.32847656 1.64882813 8.52023438 1.5625 7.6875 C1.48128906 6.88699219 1.40007813 6.08648437 1.31640625 5.26171875 C1.04734307 2.83912821 1.04734307 2.83912821 0 0 Z " fill="#4F687C" transform="translate(18,65)"/>
<path d="M0 0 C0 0.66 0 1.32 0 2 C1.11375 2.1546875 1.11375 2.1546875 2.25 2.3125 C5.17014018 3.04253504 6.73187554 4.06789398 9 6 C8.67 6.66 8.34 7.32 8 8 C6.7315625 7.319375 6.7315625 7.319375 5.4375 6.625 C1.93953355 4.97141586 -1.26959695 3.96990479 -5 3 C-5 2.34 -5 1.68 -5 1 C-3 0 -3 0 0 0 Z " fill="#BFCEDB" transform="translate(275,28)"/>
<path d="M0 0 C0.99 0.33 1.98 0.66 3 1 C2.34 2.98 1.68 4.96 1 7 C1.66 7 2.32 7 3 7 C3 7.66 3 8.32 3 9 C0.69 9 -1.62 9 -4 9 C-4 8.34 -4 7.68 -4 7 C-3.34 7 -2.68 7 -2 7 C-2 5.68 -2 4.36 -2 3 C-1.34 3 -0.68 3 0 3 C0 2.01 0 1.02 0 0 Z " fill="#96A5B1" transform="translate(105,69)"/>
<path d="M0 0 C0.33 1.32 0.66 2.64 1 4 C2.98 3.34 4.96 2.68 7 2 C6.67 3.32 6.34 4.64 6 6 C2.37 6 -1.26 6 -5 6 C-5 5.34 -5 4.68 -5 4 C-4.34 4 -3.68 4 -3 4 C-2.67 3.34 -2.34 2.68 -2 2 C-2 2.99 -2 3.98 -2 5 C-1.34 5 -0.68 5 0 5 C0 3.35 0 1.7 0 0 Z " fill="#A3B0BA" transform="translate(77,72)"/>
<path d="M0 0 C1.46972992 2.93945984 1 5.74955436 1 9 C1.33 9.66 1.66 10.32 2 11 C0.68 11 -0.64 11 -2 11 C-4 8 -4 8 -3.8125 6.0625 C-2.87858188 3.69178476 -1.61172061 1.96209466 0 0 Z " fill="#647A8C" transform="translate(39,66)"/>
<path d="M0 0 C3 2 3 2 3.6875 4.625 C3.790625 5.40875 3.89375 6.1925 4 7 C4.66 6.67 5.32 6.34 6 6 C4.25 9.875 4.25 9.875 2 11 C0.00039988 11.039992 -2.00047242 11.04346799 -4 11 C-3.154375 10.484375 -2.30875 9.96875 -1.4375 9.4375 C-0.633125 8.633125 0.17125 7.82875 1 7 C0.9363921 3.29945591 0.9363921 3.29945591 0 0 Z " fill="#A2AFBA" transform="translate(141,67)"/>
<path d="M0 0 C0.66 0.33 1.32 0.66 2 1 C2 1.66 2 2.32 2 3 C2.66 3 3.32 3 4 3 C4 6 4 6 2.5625 7.5 C2.046875 7.995 1.53125 8.49 1 9 C0.67 9.99 0.34 10.98 0 12 C-1.32 11.67 -2.64 11.34 -4 11 C-3.34 11 -2.68 11 -2 11 C-0.98617037 7.3791799 -0.50102309 3.72188582 0 0 Z " fill="#98A7B3" transform="translate(155,65)"/>
<path d="M0 0 C1.85776765 3.13498292 2.20140476 5.37471432 2 9 C-0.31 9 -2.62 9 -5 9 C-5 8.34 -5 7.68 -5 7 C-4.01 7 -3.02 7 -2 7 C-1.34 4.69 -0.68 2.38 0 0 Z " fill="#A0AEB9" transform="translate(189,69)"/>
<path d="M0 0 C1.65 0 3.3 0 5 0 C5.12375 0.86625 5.2475 1.7325 5.375 2.625 C5.98058121 5.89513853 6.88306035 8.87256899 8 12 C7.01 12 6.02 12 5 12 C4.71125 10.865625 4.4225 9.73125 4.125 8.5625 C3.75375 7.386875 3.3825 6.21125 3 5 C2.34 4.67 1.68 4.34 1 4 C0.375 1.9375 0.375 1.9375 0 0 Z " fill="#4C667A" transform="translate(190,65)"/>
<path d="M0 0 C2.0625 0.4375 2.0625 0.4375 4 1 C3.67 1.99 3.34 2.98 3 4 C-0.63 4 -4.26 4 -8 4 C-8 3.34 -8 2.68 -8 2 C-6.865625 1.855625 -5.73125 1.71125 -4.5625 1.5625 C-1.19222799 1.38828522 -1.19222799 1.38828522 0 0 Z " fill="#7FADD2" transform="translate(24,41)"/>
<path d="M0 0 C3.10398978 -0.08710289 6.20766548 -0.14042309 9.3125 -0.1875 C10.19357422 -0.21263672 11.07464844 -0.23777344 11.98242188 -0.26367188 C13.25375977 -0.27817383 13.25375977 -0.27817383 14.55078125 -0.29296875 C15.72120972 -0.31653442 15.72120972 -0.31653442 16.9152832 -0.34057617 C19.49903853 0.08152696 20.36292167 1.01489942 22 3 C20.33388095 3.042721 18.66617115 3.04063832 17 3 C16.67 2.67 16.34 2.34 16 2 C13.30764224 1.76321284 10.63501844 1.57801975 7.9375 1.4375 C7.17888672 1.39431641 6.42027344 1.35113281 5.63867188 1.30664062 C3.75934562 1.20026367 1.87969756 1.09960066 0 1 C0 0.67 0 0.34 0 0 Z " fill="#5B758A" transform="translate(236,35)"/>
<path d="M0 0 C4.875 0.875 4.875 0.875 6 2 C6.25 4.4375 6.25 4.4375 6 7 C5.01 7.66 4.02 8.32 3 9 C2.690625 7.88625 2.38125 6.7725 2.0625 5.625 C1.17673517 2.2054845 1.17673517 2.2054845 0 0 Z " fill="#587083" transform="translate(141,66)"/>
<path d="M0 0 C0.99 0.33 1.98 0.66 3 1 C3 3.31 3 5.62 3 8 C2.34 7.67 1.68 7.34 1 7 C0.34 7.66 -0.32 8.32 -1 9 C-3 6 -3 6 -2.625 3.8125 C-2.41875 3.214375 -2.2125 2.61625 -2 2 C-1.34 2 -0.68 2 0 2 C0 1.34 0 0.68 0 0 Z " fill="#A4B1BC" transform="translate(223,65)"/>
<path d="M0 0 C2.31 0 4.62 0 7 0 C7 0.66 7 1.32 7 2 C6.34 2 5.68 2 5 2 C5 2.66 5 3.32 5 4 C4.34 4 3.68 4 3 4 C3 5.65 3 7.3 3 9 C2.34 8.34 1.68 7.68 1 7 C1.375 4.375 1.375 4.375 2 2 C1.34 2 0.68 2 0 2 C0 1.34 0 0.68 0 0 Z " fill="#8C9DAA" transform="translate(259,65)"/>
<path d="M0 0 C3 1 3 1 4.1875 3.0625 C4.455625 3.701875 4.72375 4.34125 5 5 C0.25 9 0.25 9 -2 9 C-2 7.68 -2 6.36 -2 5 C-1.01 4.67 -0.02 4.34 1 4 C0.67 2.68 0.34 1.36 0 0 Z " fill="#9DABB6" transform="translate(7,67)"/>
<path d="M0 0 C5.41538462 -0.36923077 5.41538462 -0.36923077 8.375 1.5 C8.91125 1.995 9.4475 2.49 10 3 C9.67 4.32 9.34 5.64 9 7 C8.67 6.01 8.34 5.02 8 4 C6.12612784 3.19787372 6.12612784 3.19787372 3.9375 2.8125 C3.20402344 2.65394531 2.47054687 2.49539062 1.71484375 2.33203125 C1.14894531 2.22246094 0.58304687 2.11289062 0 2 C0 1.34 0 0.68 0 0 Z " fill="#668094" transform="translate(83,15)"/>
<path d="M0 0 C6.75 -0.125 6.75 -0.125 9 1 C9 1.99 9 2.98 9 4 C1.25 3.125 1.25 3.125 -1 2 C-0.67 1.34 -0.34 0.68 0 0 Z " fill="#7EACD2" transform="translate(24,18)"/>
<path d="M0 0 C0.66 0 1.32 0 2 0 C3.7143618 1.95927063 5.38405168 3.95880212 7 6 C6.01 6.33 5.02 6.66 4 7 C1.8125 5.8125 1.8125 5.8125 0 4 C0 2.68 0 1.36 0 0 Z " fill="#7DACD2" transform="translate(3,23)"/>
<path d="M0 0 C0.66 0 1.32 0 2 0 C2 1.65 2 3.3 2 5 C0.02 5.66 -1.96 6.32 -4 7 C-2.68 4.69 -1.36 2.38 0 0 Z " fill="#8DB6D7" transform="translate(19,22)"/>
<path d="M0 0 C1.485 0.99 1.485 0.99 3 2 C3 2.99 3 3.98 3 5 C3.66 5 4.32 5 5 5 C5 5.99 5 6.98 5 8 C1.83884224 6.63016497 1.0072908 6.0109362 -1 3 C-0.67 2.01 -0.34 1.02 0 0 Z " fill="#6F8494" transform="translate(109,69)"/>
<path d="M0 0 C1.98 0 3.96 0 6 0 C6.33 1.65 6.66 3.3 7 5 C6.01 5.495 6.01 5.495 5 6 C4.67 5.01 4.34 4.02 4 3 C1.98491642 2.26676204 1.98491642 2.26676204 0 2 C0 1.34 0 0.68 0 0 Z " fill="#6A8091" transform="translate(5,65)"/>
<path d="M0 0 C0.33 0.99 0.66 1.98 1 3 C0.01 4.485 0.01 4.485 -1 6 C-3.625 6.1875 -3.625 6.1875 -6 6 C-5.67 5.34 -5.34 4.68 -5 4 C-4.34 4 -3.68 4 -3 4 C-3 3.34 -3 2.68 -3 2 C-2.01 1.34 -1.02 0.68 0 0 Z " fill="#85B1D4" transform="translate(35,37)"/>
<path d="M0 0 C2 1 2 1 4 3 C4.36933645 5.75372909 4.18336678 8.20365661 4 11 C1.6870518 8.6870518 1.50419025 7.52095125 0.875 4.375 C0.70742187 3.55773437 0.53984375 2.74046875 0.3671875 1.8984375 C0.24601563 1.27195312 0.12484375 0.64546875 0 0 Z " fill="#C9DDF1" transform="translate(172,22)"/>
<path d="M0 0 C2.97 0 5.94 0 9 0 C9.33 0.66 9.66 1.32 10 2 C6.30458414 2.95024979 3.69541586 2.95024979 0 2 C0 1.34 0 0.68 0 0 Z " fill="#79A9D0" transform="translate(22,3)"/>
<path d="M0 0 C0.33 0 0.66 0 1 0 C0.25 6.625 0.25 6.625 -2 10 C-2.99 9.67 -3.98 9.34 -5 9 C-4.360625 8.071875 -3.72125 7.14375 -3.0625 6.1875 C-0.91377907 3.15780057 -0.91377907 3.15780057 0 0 Z " fill="#E0ECF8" transform="translate(174,31)"/>
<path d="M0 0 C0.99 0.33 1.98 0.66 3 1 C3 3.31 3 5.62 3 8 C2.34 8 1.68 8 1 8 C0.67 5.36 0.34 2.72 0 0 Z " fill="#476176" transform="translate(46,67)"/>
<path d="M0 0 C0.33 0 0.66 0 1 0 C1 2.31 1 4.62 1 7 C-0.98 7.99 -0.98 7.99 -3 9 C-2.01 6.03 -1.02 3.06 0 0 Z " fill="#71889B" transform="translate(202,34)"/>
</svg>
