<?xml version="1.0" encoding="UTF-8"?>
<svg version="1.1" xmlns="http://www.w3.org/2000/svg" width="5000" height="1447">
<path d="M0 0 C2.33392311 -0.00947125 4.66777256 -0.02371484 7.00166321 -0.03912735 C83.91219964 -0.50014866 166.89927628 13.69023853 224.00984192 69.30282211 C226.48944517 71.86473584 228.76763717 74.53188786 231.00984192 77.30282211 C232.11199036 78.61379868 232.11199036 78.61379868 233.23640442 79.95125961 C262.84626844 116.51709169 275.48392546 165.27463199 275.38484192 211.61532211 C275.38463043 212.53291306 275.38441895 213.450504 275.38420105 214.39590073 C275.34845065 230.00645772 274.24640074 244.98856624 271.00984192 260.30282211 C270.72898743 261.65657944 270.72898743 261.65657944 270.44245911 263.03768539 C261.44624004 305.10549734 239.707963 341.79516187 212.45271301 374.5557518 C211.18993428 376.08476104 209.95130873 377.63365259 208.71687317 379.18563461 C198.30458797 392.27424828 186.36597187 404.03698977 174.57234192 415.86532211 C174.05823761 416.38210526 173.5441333 416.8988884 173.01445007 417.43133163 C167.73671116 422.72993742 162.43207415 427.9451303 156.74641418 432.81136703 C154.16293886 435.0301848 151.68926501 437.35667417 149.19734192 439.67782211 C144.60152906 443.92446644 139.86553646 447.93200314 134.99031067 451.85750961 C131.43692998 454.7728652 127.9727413 457.7810896 124.50984192 460.80282211 C118.43842528 466.09249178 112.2656871 471.23204039 106.00984192 476.30282211 C103.04700832 478.71401915 100.09001346 481.13224342 97.13484192 483.55282211 C96.04550354 484.439254 96.04550354 484.439254 94.93415833 485.3435936 C91.08590476 488.49837562 87.4540724 491.71001699 84.00984192 495.30282211 C84.62481033 495.35176117 85.23977875 495.40070023 85.87338257 495.45112228 C91.7988535 495.97517619 97.44599951 496.91517974 103.22468567 498.30672836 C104.06953522 498.50540009 104.91438477 498.70407181 105.78483582 498.90876389 C108.50772142 499.55267837 111.2277289 500.20773146 113.94734192 500.86532211 C114.88290924 501.09002182 115.81847656 501.31472153 116.78239441 501.54623032 C132.35611557 505.29516088 147.7676112 509.35431393 163.00984192 514.30282211 C164.18788391 514.68406235 165.3659259 515.06530258 166.57966614 515.45809555 C221.75033214 533.49228402 275.61598753 561.69053818 313.00984192 607.30282211 C313.41702454 607.78025864 313.82420715 608.25769516 314.24372864 608.74959946 C333.13915401 630.91730546 346.31969646 656.59230586 355.00984192 684.30282211 C355.36320618 685.41705551 355.36320618 685.41705551 355.72370911 686.55379868 C376.5218379 753.22055387 367.10646098 833.68267922 335.00984192 895.30282211 C327.76193575 908.7670158 319.63101653 921.4186112 310.00984192 933.30282211 C309.54867981 933.87291 309.0875177 934.44299789 308.61238098 935.03036118 C296.86210853 949.43257588 284.14347702 963.21892161 270.00984192 975.30282211 C268.56931458 976.57706039 268.56931458 976.57706039 267.09968567 977.87704086 C257.17382529 986.61012602 246.66244649 994.48346706 236.00984192 1002.30282211 C235.22496399 1002.88241684 234.44008606 1003.46201157 233.63142395 1004.05916977 C223.01430492 1011.89213431 212.20928965 1019.32651995 201.00984192 1026.30282211 C200.24478333 1026.78074203 199.47972473 1027.25866196 198.69148254 1027.7510643 C127.71914491 1071.83994071 46.36276507 1091.69646641 -36.74015808 1093.92782211 C-37.55808838 1093.94994766 -38.37601868 1093.97207321 -39.21873474 1093.99486923 C-51.11121485 1094.30106834 -62.97362213 1094.33507994 -74.86515808 1093.99032211 C-76.1371405 1093.95567856 -77.40912292 1093.921035 -78.71965027 1093.88534164 C-99.49034097 1093.16152258 -120.08417002 1090.80838348 -140.67765808 1088.11532211 C-143.07042046 1087.80715818 -145.46324417 1087.49947016 -147.85612488 1087.19222641 C-159.86734647 1085.64511005 -171.8724302 1084.05562605 -183.87297058 1082.42782211 C-204.57289873 1079.62563177 -225.25472693 1076.9014495 -246.05265808 1074.92782211 C-246.88286469 1074.84819229 -247.71307129 1074.76856247 -248.56843567 1074.68651962 C-254.03837786 1074.16823355 -259.51073945 1073.70866144 -264.99015808 1073.30282211 C-266.06846893 1073.22130905 -266.06846893 1073.22130905 -267.16856384 1073.13814926 C-298.10856046 1070.91185075 -329.07136596 1072.46713874 -359.9641571 1074.5623436 C-363.55631905 1074.80350822 -367.14911068 1075.03439799 -370.74196815 1075.26493359 C-389.95467595 1076.40300325 -389.95467595 1076.40300325 -409.12010193 1078.11642075 C-412.75109867 1078.47834718 -416.34626906 1078.36159452 -419.99015808 1078.30282211 C-417.27529154 1074.68719939 -414.49648771 1071.94248247 -410.92765808 1069.17782211 C-378.21263007 1042.73571558 -371.46648013 1003.32107433 -367.22062683 963.29110336 C-365.19379882 942.81208688 -363.86174497 922.26527707 -362.43547058 901.73788071 C-362.35466751 900.57835892 -362.27386444 899.41883713 -362.19061279 898.22417831 C-362.04249812 896.09301916 -361.89547584 893.96178352 -361.75003052 891.83044052 C-361.37743161 886.46176344 -360.97663141 881.09817114 -360.52288818 875.73575974 C-359.30630674 861.26768687 -358.43454101 846.82342041 -357.90031433 832.31454086 C-357.85871752 831.21740957 -357.8171207 830.12027828 -357.77426338 828.98990059 C-356.80239413 802.96008818 -356.58994223 776.93134089 -356.44937515 750.88607025 C-356.4121078 744.41531727 -356.36387814 737.94464711 -356.31608582 731.47396469 C-356.2489118 722.30906819 -356.18324243 713.14416596 -356.12083912 703.97923565 C-355.9673917 681.48259028 -355.78860258 658.98626438 -355.55265808 636.49032211 C-355.54313488 635.5769949 -355.53361168 634.66366768 -355.5237999 633.72266388 C-355.20548023 603.5994857 -354.46636954 573.52536882 -352.83494568 543.44057846 C-352.18008381 531.32501206 -351.88058718 519.53676553 -352.86515808 507.42782211 C-354.54957707 485.10333944 -355.15550903 462.75375406 -355.52531433 440.37313461 C-355.54597521 439.17100452 -355.56663609 437.96887444 -355.58792305 436.73031616 C-355.92815401 416.73149804 -356.11596618 396.73363543 -356.23625183 376.73250961 C-356.24472727 375.34671908 -356.25320736 373.96092857 -356.26169205 372.57513809 C-356.33846227 359.94567206 -356.4092584 347.31617921 -356.46696472 334.68661118 C-356.69268081 286.04355948 -358.15625022 237.69939124 -362.13926697 189.20565414 C-362.44307981 185.46960173 -362.73518229 181.73266711 -363.02767372 177.99571419 C-364.41598539 160.311199 -365.92194605 142.65136819 -368.03703308 125.03719711 C-368.18965607 123.75370377 -368.34227905 122.47021042 -368.49952698 121.14782333 C-372.07890869 92.58058158 -377.67817597 52.98916448 -400.6471405 33.10848618 C-404.68657189 29.99546809 -409.13117686 27.76838231 -413.67765808 25.49032211 C-414.60127136 25.01401352 -415.52488464 24.53770493 -416.47648621 24.04696274 C-420.59302611 21.9397922 -424.67540453 19.97538167 -428.99015808 18.30282211 C-428.99015808 17.97282211 -428.99015808 17.64282211 -428.99015808 17.30282211 C-410.91947992 17.10424883 -393.00000679 17.51778435 -374.95175171 18.47799873 C-348.57229069 19.87695961 -322.21928237 20.63694762 -295.80249023 20.67296982 C-293.54237116 20.67771255 -291.28235227 20.68829038 -289.02226257 20.70052719 C-254.97763111 20.86352355 -221.46403407 17.25773932 -187.67257214 13.4133358 C-150.10877696 9.14026564 -112.56478542 5.19976417 -74.85020447 2.5099144 C-72.22567981 2.31987594 -69.60225835 2.11943543 -66.97892761 1.91366196 C-44.68259634 0.18130949 -22.35219116 0.07683703 0 0 Z M-166.13664246 69.57271957 C-168.88189985 69.79815249 -171.62770308 70.01649175 -174.37353325 70.23481941 C-188.60553083 71.36797728 -202.81627948 72.57761219 -216.99015808 74.30282211 C-218.41051609 81.56764263 -219.47213435 88.78288319 -220.17375183 96.15047836 C-220.27388077 97.17550461 -220.3740097 98.20053085 -220.47717285 99.2566185 C-220.8018132 102.62549982 -221.11632337 105.99518606 -221.42765808 109.36532211 C-221.53654358 110.53654617 -221.64542908 111.70777023 -221.75761414 112.91448593 C-223.47815581 131.62876534 -224.77385876 150.34753233 -225.74015808 169.11532211 C-225.79896149 170.23278824 -225.85776489 171.35025436 -225.91835022 172.5015831 C-227.98923753 212.56175176 -228.13514819 252.63637181 -228.09155202 292.74031758 C-228.08533566 298.90839079 -228.08492016 305.07646588 -228.08390015 311.2445417 C-228.08173706 323.42307034 -228.07515341 335.6015921 -228.06559753 347.78011703 C-228.05635102 359.5769917 -228.04930611 371.37386446 -228.04508972 383.17074203 C-228.044827 383.90373227 -228.04456427 384.63672251 -228.04429359 385.39192457 C-228.0429881 389.07086229 -228.0417245 392.74980002 -228.04048169 396.42873776 C-228.03019495 426.72010413 -228.01257693 457.01146214 -227.99015808 487.30282211 C-204.27075876 487.35019991 -180.55136683 487.38512469 -156.83192921 487.40644646 C-145.81084382 487.41662337 -134.78978879 487.4304988 -123.76872253 487.45370102 C-96.98373408 487.50837179 -70.20021372 487.49555796 -43.41558075 487.33414841 C-39.89377209 487.31302687 -36.37198108 487.29543478 -32.8501358 487.28174973 C-23.90320189 487.24555465 -14.95972007 487.16353455 -6.01439476 486.98708344 C-3.46967584 486.94317778 -0.92461905 486.91524264 1.6204586 486.90515137 C19.09618352 486.85897205 19.09618352 486.85897205 33.48217773 477.94005966 C34.31630692 477.06977127 35.1504361 476.19948288 36.00984192 475.30282211 C37.92420768 473.54658393 39.87513764 471.83542057 41.82234192 470.11532211 C42.71695129 469.2838768 43.61156067 468.45243149 44.53327942 467.59579086 C46.63292949 465.65179308 48.76753683 463.78020792 50.94734192 461.92782211 C59.30017701 454.63620788 66.93721322 446.7357843 73.81843567 438.04500961 C75.27157298 436.22664528 76.76406902 434.43900646 78.29499817 432.68563461 C111.0767323 395.05326991 131.88771435 344.71170571 132.24812317 294.64657211 C132.25619492 293.54599472 132.26426666 292.44541733 132.27258301 291.31148911 C132.28634876 288.98521078 132.29710411 286.6589129 132.30500793 284.33260727 C132.31642356 282.00800057 132.33670546 279.68341784 132.36653137 277.35897446 C133.06873772 222.4142702 115.09995073 169.51251145 77.00984192 129.30282211 C76.12941223 128.3579393 75.24898254 127.41305649 74.34187317 126.43954086 C33.86092654 83.86463223 -28.18425909 68.33361402 -85.03507996 66.74520493 C-87.29914821 66.67973103 -89.56247926 66.60096243 -91.82609558 66.52157211 C-116.65094003 65.74754534 -141.41287611 67.52652254 -166.13664246 69.57271957 Z M-174.49015808 540.74032211 C-175.40714729 540.77409454 -176.32413651 540.80786697 -177.26891327 540.84266281 C-183.41590892 541.06988503 -189.56251367 541.30599809 -195.70890808 541.54891586 C-196.49289852 541.5794927 -197.27688896 541.61006954 -198.08463669 541.64157295 C-207.73674407 542.02180613 -217.35877398 542.54859676 -226.99015808 543.30282211 C-228.75424381 634.78286273 -228.86093582 726.37212014 -222.99015808 903.67782211 C-222.94804073 904.43637875 -222.90592339 905.19493538 -222.86252975 905.97647858 C-222.2808247 916.42135712 -221.66086821 926.8632583 -220.99015808 937.30282211 C-220.90765808 938.58821884 -220.82515808 939.87361557 -220.74015808 941.19796371 C-220.50127092 944.83014496 -220.24885379 948.46106595 -219.99015808 952.09188461 C-219.91925964 953.16103104 -219.84836121 954.23017746 -219.77531433 955.33172226 C-219.70183777 956.31427994 -219.62836121 957.29683762 -219.55265808 958.30916977 C-219.49207214 959.15822891 -219.43148621 960.00728806 -219.36906433 960.88207626 C-218.73403004 964.93916591 -217.94002987 967.60246917 -214.58952332 970.07284164 C-213.58606873 970.60506332 -212.58261414 971.137285 -211.54875183 971.68563461 C-209.85697815 972.59200668 -209.85697815 972.59200668 -208.13102722 973.5166893 C-206.89720953 974.15496969 -205.66273521 974.79198217 -204.42765808 975.42782211 C-203.15211162 976.09597427 -201.87664056 976.76427038 -200.60124207 977.43270493 C-188.65178597 983.64629823 -176.46324298 989.219587 -163.99015808 994.30282211 C-162.88156433 994.75608871 -161.77297058 995.20935532 -160.63078308 995.67635727 C-127.27969071 1009.15921546 -92.7271184 1018.5710189 -57.17765808 1024.05282211 C-55.24974426 1024.3511998 -55.24974426 1024.3511998 -53.28288269 1024.65560532 C-32.82861877 1027.65975686 -12.53170537 1028.71261606 8.13484192 1028.67782211 C9.96918793 1028.67700638 9.96918793 1028.67700638 11.84059143 1028.67617416 C63.71892607 1028.57059477 129.87827626 1024.33402741 169.00984192 986.30282211 C169.67113098 985.70340805 170.33242004 985.10399399 171.01374817 984.48641586 C205.96523306 951.79442091 217.63617985 892.92113461 222.00984192 847.30282211 C222.12070129 846.19809555 222.23156067 845.09336899 222.34577942 843.95516586 C228.32103641 772.33282865 208.77689732 696.69666456 162.41169739 640.94979477 C158.11757727 635.9048393 153.60405832 631.07407961 149.00984192 626.30282211 C148.25719055 625.51729965 148.25719055 625.51729965 147.48933411 624.71590805 C140.73534965 617.70131969 133.74122504 611.24399247 126.00984192 605.30282211 C125.36756653 604.80057114 124.72529114 604.29832016 124.06355286 603.78084946 C68.58694756 560.58561678 -2.81982193 539.3562217 -72.71672058 539.09969711 C-74.02349762 539.09286407 -75.33027466 539.08603104 -76.676651 539.07899094 C-80.98948801 539.0597682 -85.30228418 539.05555295 -89.61515808 539.05282211 C-90.72831894 539.05127562 -90.72831894 539.05127562 -91.8639679 539.04969788 C-119.42788834 539.01391488 -146.94649436 539.71998271 -174.49015808 540.74032211 Z " fill="#00519B" transform="translate(4165.990158081055,181.6971778869629)"/>
<path d="M0 0 C-2.63357338 2.65795832 -5.28619947 5.28035372 -8.015625 7.83984375 C-15.77419272 15.20994686 -21.71678771 22.70326799 -27 32 C-27.54011719 32.928125 -28.08023438 33.85625 -28.63671875 34.8125 C-35.67837345 47.82385146 -39.70106011 62.37767472 -42.51171875 76.82421875 C-42.725401 77.91350677 -42.93908325 79.0027948 -43.15924072 80.12509155 C-45.20466436 90.74950766 -46.86211332 101.39619697 -48.25 112.125 C-48.46210617 113.75103149 -48.46210617 113.75103149 -48.67849731 115.40991211 C-54.14828779 158.00246327 -57.21257204 200.90901488 -60.72823334 243.69552612 C-60.99295602 246.91435058 -61.25867339 250.13309131 -61.52471924 253.35180664 C-68.51239077 337.94623072 -74.48781076 422.62794713 -101.83767414 940.49452829 C-101.96028874 943.3559538 -102.0830322 946.21737376 -102.20580292 949.07879257 C-102.96018033 966.66563812 -103.7121854 984.25257442 -104.44648874 1001.84027094 C-104.73277283 1008.69533284 -105.02183969 1015.55027354 -105.31299078 1022.40513045 C-105.51406798 1027.14480832 -105.71117092 1031.88462878 -105.90517926 1036.62460101 C-106.02389837 1039.5024867 -106.14635174 1042.38020409 -106.26991558 1045.25788546 C-106.35276402 1047.2140248 -106.43102657 1049.17035668 -106.5091629 1051.12668991 C-106.5843729 1052.85191061 -106.5843729 1052.85191061 -106.66110229 1054.61198425 C-106.72351262 1056.11089848 -106.72351262 1056.11089848 -106.78718376 1057.6400938 C-107 1060 -107 1060 -108 1062 C-113.35275303 1062.07482879 -118.70519351 1062.12891907 -124.05834961 1062.16479492 C-125.8748099 1062.17976973 -127.69123474 1062.20015684 -129.50756836 1062.22631836 C-143.20312968 1062.41847066 -156.137006 1062.57812374 -167 1053 C-169.37437795 1050.36915614 -171.57333524 1047.65578459 -173.75 1044.859375 C-175.90041044 1042.12656173 -178.15020538 1039.56192885 -180.5 1037 C-183.57653672 1033.62539052 -186.51118217 1030.18184136 -189.375 1026.625 C-193.05571847 1022.07219493 -196.92648648 1017.76582589 -200.91137695 1013.4831543 C-204.71385014 1009.37239043 -208.24263299 1005.07733477 -211.75390625 1000.71484375 C-214.0883059 997.89326505 -216.51990598 995.19409288 -219 992.5 C-222.27418423 988.94329756 -225.40642433 985.32838189 -228.4375 981.5625 C-232.09571015 977.02683557 -235.94742965 972.7429883 -239.91381836 968.48071289 C-243.69490558 964.39338994 -247.19689966 960.11956756 -250.6875 955.78125 C-253.1997101 952.75980812 -255.82400827 949.87558227 -258.5 947 C-262.76918152 942.41239887 -266.75758517 937.66557272 -270.6875 932.78125 C-273.1997101 929.75980812 -275.82400827 926.87558227 -278.5 924 C-282.76918152 919.41239887 -286.75758517 914.66557272 -290.6875 909.78125 C-293.64176364 906.22814914 -296.76913424 902.8597632 -299.91625977 899.47827148 C-302.88715628 896.2670095 -305.69961077 892.97372185 -308.4375 889.5625 C-311.80346265 885.37762693 -315.33176017 881.41685602 -319 877.5 C-323.45872195 872.73908666 -327.63797624 867.83532437 -331.72265625 862.74609375 C-334.21826547 859.73680853 -336.83766805 856.86062978 -339.5 854 C-343.78960407 849.39001057 -347.80411122 844.62216484 -351.75390625 839.71484375 C-354.0883059 836.89326505 -356.51990598 834.19409288 -359 831.5 C-362.27418423 827.94329756 -365.40642433 824.32838189 -368.4375 820.5625 C-372.09571015 816.02683557 -375.94742965 811.7429883 -379.91381836 807.48071289 C-383.69490558 803.39338994 -387.19689966 799.11956756 -390.6875 794.78125 C-393.19971133 791.75980664 -395.82402457 788.87559922 -398.5 786 C-402.7895776 781.38998361 -406.80410897 776.62216764 -410.75390625 771.71484375 C-413.0883059 768.89326505 -415.51990598 766.19409288 -418 763.5 C-421.27418423 759.94329756 -424.40642433 756.32838189 -427.4375 752.5625 C-430.65943101 748.56776014 -434.00655495 744.75445651 -437.5 741 C-441.78955113 736.38995664 -445.80410672 731.62217044 -449.75390625 726.71484375 C-452.0883059 723.89326505 -454.51990598 721.19409288 -457 718.5 C-461.09351091 714.05272888 -464.92442499 709.45282537 -468.71875 704.75 C-471.06718968 701.91900422 -473.50909902 699.20616402 -476 696.5 C-480.11378909 692.0301488 -483.97087297 687.40955107 -487.78515625 682.68359375 C-489.95632827 680.05291443 -492.20241357 677.52057576 -494.5 675 C-498.41891252 670.70008209 -502.09170869 666.24080453 -505.75 661.71875 C-507.93501569 659.07852271 -510.19171391 656.5327028 -512.5 654 C-516.41891252 649.70008209 -520.09170869 645.24080453 -523.75 640.71875 C-525.93501569 638.07852271 -528.19171391 635.5327028 -530.5 633 C-534.32170863 628.80270966 -537.91474189 624.46289769 -541.484375 620.05078125 C-544.42924654 616.47943859 -547.45708127 612.9877745 -550.5 609.5 C-554.32318393 605.11789039 -558.09154344 600.70940348 -561.75 596.1875 C-564.57487839 592.69764112 -567.47717579 589.31989486 -570.5 586 C-574.34191939 581.77986056 -577.96115221 577.41972816 -581.55078125 572.984375 C-584.31810598 569.61238761 -587.15143465 566.3033143 -590 563 C-593.53614909 558.89773502 -597.02863508 554.77197907 -600.4375 550.5625 C-604.03636198 546.12760474 -607.74735888 541.80435749 -611.5 537.5 C-616.01477284 532.32069828 -620.43237753 527.08164386 -624.7578125 521.7421875 C-627.30253595 518.62999959 -629.89614381 515.56270126 -632.5 512.5 C-635.85452096 508.55353876 -639.17221962 504.58357765 -642.4375 500.5625 C-645.89274457 496.31607242 -649.42706576 492.14711576 -653 488 C-658.09957086 482.07884944 -663.07985892 476.07147208 -668 470 C-672.79741944 464.09614869 -677.63434909 458.23243664 -682.5625 452.4375 C-686.43534988 447.88347557 -690.20622303 443.26505442 -693.91796875 438.578125 C-696.33084261 435.59032623 -698.81803326 432.66950158 -701.3125 429.75 C-705.63687677 424.68293248 -709.7802574 419.49944746 -713.86767578 414.24023438 C-717.49410562 409.59447673 -721.26429878 405.08859509 -725.09033203 400.60668945 C-728.4040871 396.72051545 -731.6194222 392.77039748 -734.79296875 388.76953125 C-737.56873411 385.28631419 -740.37700787 381.83021803 -743.1875 378.375 C-743.74147461 377.69348877 -744.29544922 377.01197754 -744.86621094 376.30981445 C-747.68780462 372.83954595 -750.51219949 369.37158998 -753.33984375 365.90625 C-758.88258685 359.10760083 -764.37172612 352.27583519 -769.76611328 345.35888672 C-773.43445772 340.67530317 -777.2059115 336.08204415 -781 331.5 C-787.12811586 324.09643889 -793.09659941 316.58321224 -799 309 C-800.78909123 306.70631014 -802.58079507 304.41469194 -804.375 302.125 C-804.82311035 301.55313965 -805.2712207 300.9812793 -805.73291016 300.39208984 C-809.29237082 295.86564447 -812.92011628 291.39734448 -816.5625 286.9375 C-821.32627179 281.10208886 -825.97275005 275.1948299 -830.54296875 269.20703125 C-833.14402636 265.80145803 -835.78696242 262.4296385 -838.4375 259.0625 C-838.89745361 258.47807129 -839.35740723 257.89364258 -839.83129883 257.29150391 C-841.2204271 255.52732315 -842.61017398 253.7636311 -844 252 C-850.04199726 244.32892425 -856.06553072 236.643848 -862.0625 228.9375 C-862.95146973 227.79583374 -862.95146973 227.79583374 -863.85839844 226.63110352 C-866.56804859 223.14667915 -869.26859986 219.65638768 -871.9375 216.140625 C-872.38472412 215.55289307 -872.83194824 214.96516113 -873.29272461 214.35961914 C-874.47053036 212.80861134 -875.64366832 211.25406193 -876.81640625 209.69921875 C-880.64998713 204.96039158 -884.74689218 201.39317654 -889.68188477 197.8347168 C-890.67656265 197.11607956 -891.67124054 196.39744232 -892.69606018 195.6570282 C-893.45636032 195.11020889 -894.21666046 194.56338959 -895 194 C-895.88198303 213.21277402 -896.12047233 232.35205724 -895.84492874 251.5821991 C-895.81162107 253.93714257 -895.78099765 256.29211071 -895.7507019 258.64709473 C-895.43719388 282.39368184 -894.83029275 306.12975311 -894.109375 329.8671875 C-894.08882097 330.54408324 -894.06826694 331.22097897 -894.04709005 331.9183867 C-893.63520663 345.461155 -893.21261731 359.00358894 -892.78497314 372.54586792 C-891.85876825 401.89643528 -890.93629631 431.24188593 -890.5390625 460.60546875 C-890.51672515 462.24029111 -890.51672515 462.24029111 -890.49393654 463.90814018 C-890.43442779 468.29642892 -890.37607228 472.68473191 -890.31851673 477.07304668 C-889.63694923 528.99164596 -887.83952927 580.8345613 -885.74022722 632.71228266 C-885.62659559 635.52303213 -885.51342269 638.33379972 -885.40038681 641.14457321 C-883.78677528 681.24082217 -882.04136784 721.32970288 -880.04794264 761.40898013 C-879.92526199 763.87717025 -879.80321372 766.34539103 -879.68123245 768.8136158 C-878.8137089 786.31882519 -877.85878634 803.81674067 -876.77246094 821.30981445 C-876.72434438 822.08498075 -876.67622783 822.86014704 -876.62665319 823.65880322 C-874.14280667 863.50175011 -870.93505586 903.274544 -867 943 C-866.92962776 943.71261742 -866.85925552 944.42523483 -866.78675079 945.15944672 C-865.85142024 954.62339832 -864.88596448 964.08370156 -863.87762451 973.54016113 C-863.58743117 976.26196841 -863.30360089 978.98430884 -863.0256958 981.70739746 C-860.08488118 1010.20504713 -853.95256661 1035.08151789 -831.125 1054.125 C-828.53865898 1056.17091155 -826.01368699 1057.99184847 -823.1796875 1059.6796875 C-822.46039062 1060.11539062 -821.74109375 1060.55109375 -821 1061 C-821 1061.33 -821 1061.66 -821 1062 C-829.10805108 1061.46982564 -837.18405783 1060.80368502 -845.26391602 1059.9465332 C-907.84758558 1053.40409204 -970.78767516 1055.09858931 -1033.36865234 1060.67871094 C-1034.35246887 1060.76569244 -1035.3362854 1060.85267395 -1036.34991455 1060.94229126 C-1038.18269388 1061.10526744 -1040.0152013 1061.27134624 -1041.84735107 1061.44125366 C-1046.9224131 1061.8937018 -1051.90453178 1062.07565709 -1057 1062 C-1053.4963852 1058.39314794 -1049.82359532 1055.12935505 -1045.9375 1051.9375 C-1035.68157306 1043.34239242 -1026.56513053 1034.81723496 -1020 1023 C-1019.61457031 1022.37222656 -1019.22914062 1021.74445312 -1018.83203125 1021.09765625 C-1011.54973578 1008.34666379 -1010.2955434 990.75720896 -1007.75 976.5 C-1007.55746643 975.42510315 -1007.36493286 974.3502063 -1007.16656494 973.24273682 C-993.19503057 894.82551415 -986.54535472 815.64211941 -980.26316833 736.32164001 C-979.99622785 732.95238891 -979.72869394 729.58318531 -979.46105957 726.21398926 C-978.27626148 711.28935421 -977.10488366 696.36370818 -975.94517136 681.43710327 C-975.69349499 678.20205947 -975.44063301 674.96711023 -975.18753052 671.73217773 C-971.09646016 619.34742473 -968.28825655 566.8998041 -965.6142168 514.4272604 C-965.49900621 512.168012 -965.38355357 509.90877609 -965.26802826 507.64954376 C-963.38911966 470.89854682 -961.53094499 434.14775284 -960.125 397.375 C-960.09695282 396.64752438 -960.06890564 395.92004875 -960.04000854 395.17052841 C-958.68478191 359.95719377 -957.83825452 324.75760194 -957.83274293 289.51769376 C-957.8320161 286.88655415 -957.8298529 284.25541932 -957.82724571 281.62428093 C-957.81811121 272.37638913 -957.81389729 263.1285114 -957.81469727 253.88061523 C-957.81530128 245.36139846 -957.8046554 236.84224432 -957.7889536 228.32304341 C-957.77578085 220.90283215 -957.77051711 213.48264122 -957.77115268 206.0624184 C-957.77140395 201.6758572 -957.76876035 197.28935257 -957.75797462 192.90280342 C-957.71506163 174.16853679 -957.92757826 155.64699366 -960 137 C-960.09065546 136.14957186 -960.18131092 135.29914371 -960.27471352 134.42294502 C-963.05357858 108.80427917 -980.28508533 87.72592784 -997 69 C-997.721875 68.16855469 -998.44375 67.33710938 -999.1875 66.48046875 C-1008.13664425 56.29752703 -1017.66221475 46.53458196 -1028.3125 38.12890625 C-1031.1468897 35.88364115 -1033.87997006 33.54091562 -1036.625 31.1875 C-1049.25138314 20.66279869 -1063.14888562 11.80646571 -1077 3 C-1076.67 2.34 -1076.34 1.68 -1076 1 C-1074.82832275 1.08564209 -1073.65664551 1.17128418 -1072.44946289 1.25952148 C-1067.96716811 1.58603937 -1063.48449527 1.90711388 -1059.00170898 2.22680664 C-1057.08689379 2.36406767 -1055.17217427 2.50267225 -1053.25756836 2.64282227 C-1027.42759827 4.53115737 -1001.66584906 5.20419095 -975.77513123 5.18888092 C-973.40310591 5.18747968 -971.03108329 5.18758511 -968.65905762 5.18768311 C-949.00783023 5.18165618 -929.38549416 4.98893953 -909.75 4.125 C-908.79858124 4.08479736 -907.84716248 4.04459473 -906.86691284 4.00317383 C-897.88570038 3.61580848 -888.93115106 3.12537385 -879.98028564 2.28094482 C-876.60895259 1.96478176 -873.23495105 1.684771 -869.86047363 1.40447998 C-867.58414364 1.19523467 -865.3223666 0.92202449 -863.05371094 0.64306641 C-853.68145162 -0.30479494 -853.68145162 -0.30479494 -849.7199707 2.76928711 C-847.95693963 5.12235108 -846.48863884 7.51496567 -845.08428955 10.09567261 C-843.40258312 13.04923756 -841.46958118 15.8228295 -839.55819702 18.63124084 C-837.88455651 21.09209681 -836.23517649 23.56767504 -834.59179688 26.04882812 C-834.03097412 26.89517822 -833.47015137 27.74152832 -832.89233398 28.61352539 C-832.32973877 29.46293701 -831.76714355 30.31234863 -831.1875 31.1875 C-823.22570409 43.1963791 -815.21023756 55.15931007 -807 67 C-806.29689697 68.01537842 -805.59379395 69.03075684 -804.86938477 70.0769043 C-802.97846267 72.80339962 -801.08396009 75.52735437 -799.1875 78.25 C-798.17465942 79.70442505 -798.17465942 79.70442505 -797.14135742 81.18823242 C-795.76091128 83.16982757 -794.38013841 85.15119516 -792.99902344 87.13232422 C-791.70745481 88.98512895 -790.41640269 90.8382939 -789.12597656 92.69189453 C-781.84935877 103.14243998 -774.49194043 113.5272861 -767.015625 123.8359375 C-764.32599811 127.54477357 -761.65803645 131.26848419 -759 135 C-749.04203576 148.96341368 -738.95054816 162.82518932 -728.75732422 176.61767578 C-727.0224021 178.9696305 -725.29344856 181.32584839 -723.56640625 183.68359375 C-716.74771214 192.98454452 -709.8319773 202.20388954 -702.82739258 211.36572266 C-698.7948625 216.64027396 -694.78680094 221.93145021 -690.8125 227.25 C-682.11520287 238.88175104 -673.25270943 250.38811518 -664.390625 261.89453125 C-662.77399434 263.99456618 -661.15908886 266.09580344 -659.546875 268.19921875 C-653.88163715 275.58657283 -648.1531579 282.921842 -642.39111328 290.23388672 C-640.09125755 293.15371058 -637.79589478 296.07706142 -635.5 299 C-635.04560547 299.57814453 -634.59121094 300.15628906 -634.12304688 300.75195312 C-631.84167751 303.65463159 -629.56185835 306.55850275 -627.28515625 309.46484375 C-622.0531993 316.14009917 -616.78460823 322.78394517 -611.47631836 329.39868164 C-608.16152357 333.53376397 -604.88527552 337.69687565 -601.625 341.875 C-596.9207816 347.89585096 -592.07306859 353.79099487 -587.19848633 359.67431641 C-583.5003422 364.14778789 -579.87514985 368.66807043 -576.3125 373.25 C-572.29966642 378.4084127 -568.15009712 383.42649272 -563.90673828 388.39648438 C-560.61219521 392.25913323 -557.42412642 396.19099439 -554.26953125 400.16796875 C-549.53174817 406.08000444 -544.68314636 411.90232455 -539.85986328 417.74462891 C-538.02742127 419.96674748 -536.19861665 422.19180351 -534.37109375 424.41796875 C-528.57270081 431.47849993 -522.74884196 438.51271787 -516.82910156 445.47192383 C-514.03378025 448.76257278 -511.28459284 452.08610612 -508.5625 455.4375 C-504.60491812 460.30129025 -500.53457554 465.05881231 -496.44165039 469.80834961 C-493.41054711 473.33298919 -490.43014684 476.89039882 -487.5 480.5 C-483.60649477 485.29308766 -479.60961222 489.9878177 -475.58203125 494.66796875 C-471.74648055 499.12497577 -467.94149308 503.60657473 -464.14941406 508.10058594 C-460.24229229 512.72574302 -456.29379439 517.31464639 -452.34423828 521.90356445 C-449.29767556 525.4542525 -446.31560701 529.04798112 -443.375 532.6875 C-439.57557031 537.37163444 -435.55599792 541.80932528 -431.47265625 546.24609375 C-428.25290481 549.83207284 -425.24094824 553.56701492 -422.21484375 557.31640625 C-419.33401493 560.80693429 -416.29065597 564.13274068 -413.2421875 567.4765625 C-410.95484096 570.05082358 -408.78451729 572.69289489 -406.625 575.375 C-402.94363311 579.92860712 -399.07225527 584.23582516 -395.08642578 588.51904297 C-391.30523247 592.60642715 -387.80317332 596.88034173 -384.3125 601.21875 C-381.35823636 604.77185086 -378.23086576 608.1402368 -375.08374023 611.52172852 C-372.11284372 614.7329905 -369.30038923 618.02627815 -366.5625 621.4375 C-362.71825361 626.21701922 -358.62910955 630.69320344 -354.43945312 635.16601562 C-351.34234535 638.49137277 -348.40385624 641.88710807 -345.5625 645.4375 C-341.53424482 650.46002506 -337.20522954 655.12743667 -332.79492188 659.81054688 C-329.57230657 663.25126217 -326.504985 666.74980464 -323.5625 670.4375 C-318.75672252 676.44250107 -313.48784835 681.97560777 -308.21875 687.5703125 C-304.26683983 691.76808922 -300.47654227 696.08290505 -296.74560547 700.47753906 C-290.67959403 707.62022012 -284.54263174 714.66068759 -278.15625 721.51953125 C-274.94030561 724.97369374 -271.79482045 728.47435592 -268.70703125 732.04296875 C-266.66366569 734.3855915 -264.58319141 736.69273422 -262.5 739 C-259.22927077 742.62432158 -255.9983078 746.27883178 -252.79296875 749.9609375 C-250.82158957 752.20289813 -248.81837309 754.41385803 -246.8125 756.625 C-242.6044793 761.28464813 -238.52070283 766.04158697 -234.44921875 770.82006836 C-231.45565677 774.32576236 -228.4173581 777.77920027 -225.3125 781.1875 C-221.46466216 785.42358814 -217.85800806 789.8225998 -214.2578125 794.26953125 C-211.31266522 797.83122321 -208.22768233 801.25072962 -205.1171875 804.66796875 C-203.21948831 806.75823889 -201.35266585 808.86986115 -199.5 811 C-196.23953237 814.74127392 -192.92631376 818.43300368 -189.6015625 822.1171875 C-188.08935729 823.79287435 -186.58175041 825.47277837 -185.08618164 827.16333008 C-179.32796532 833.6386869 -173.32701825 839.8241259 -167.1875 845.9375 C-166.26001953 846.86884766 -165.33253906 847.80019531 -164.37695312 848.75976562 C-163.48298828 849.65244141 -162.58902344 850.54511719 -161.66796875 851.46484375 C-160.86641357 852.265271 -160.0648584 853.06569824 -159.23901367 853.89038086 C-157.24541914 855.76876384 -155.22853104 857.41292409 -153 859 C-150.7420583 805.06183073 -149.71748303 751.13747217 -149.91113281 697.15283203 C-149.91504886 696.05973368 -149.91504886 696.05973368 -149.91904402 694.94455254 C-149.98105849 678.60621491 -150.15887672 662.27032338 -150.390625 645.93359375 C-150.40103648 645.18909776 -150.41144795 644.44460178 -150.42217493 643.67754531 C-150.89767483 609.75430307 -151.73972587 575.84394633 -152.67866892 541.93078756 C-152.90370391 533.79549953 -153.12290577 525.66005641 -153.34209287 517.52460909 C-154.14031134 487.91336981 -154.96100106 458.30275001 -155.78918457 428.69233513 C-155.89347922 424.96339533 -155.99764566 421.23445196 -156.10180664 417.50550842 C-156.38508572 407.3728819 -156.66917442 397.24028561 -156.96028137 387.10788059 C-157.1037794 382.10581263 -157.24558709 377.10369774 -157.38671875 372.1015625 C-157.42716183 370.67380651 -157.42716183 370.67380651 -157.46842194 369.21720695 C-157.78027249 358.13027234 -158.04904528 347.04345148 -158.25927734 335.95410156 C-158.28021737 334.86183699 -158.3011574 333.76957241 -158.32273197 332.64420891 C-158.42200452 327.42098244 -158.51628613 322.19774857 -158.60148621 316.97427368 C-158.83146283 303.79259906 -159.41835928 290.65712108 -160.25 277.5 C-160.32457932 276.31468689 -160.39915863 275.12937378 -160.47599792 273.90814209 C-160.66088936 271.07237095 -160.85430881 268.23733357 -161.05078125 265.40234375 C-161.75864634 254.93429155 -162.39772857 244.46323096 -163.01425552 233.98947525 C-167.53218305 151.34866154 -167.53218305 151.34866154 -181.33740234 69.85644531 C-181.90600684 67.40520264 -182.45019296 64.95023388 -182.98828125 62.4921875 C-188.70660384 38.35935473 -204.72850443 20.94793763 -221.98046875 4.08203125 C-224 2 -224 2 -224 1 C-212.37517293 0.72271408 -200.82848565 1.16156155 -189.2265625 1.875 C-187.75090463 1.96491019 -186.27524231 2.05474755 -184.79957581 2.14451599 C-184.04924544 2.19019494 -183.29891508 2.23587389 -182.52584743 2.28293705 C-181.76297452 2.32935054 -181.0001016 2.37576403 -180.21411133 2.42358398 C-179.43911065 2.47078551 -178.66410997 2.51798704 -177.86562443 2.56661892 C-148.66295938 4.33513388 -119.5146026 5.42443651 -90.25621796 5.4352417 C-87.85797343 5.43745798 -85.4598106 5.44545843 -83.06158447 5.45483398 C-57.86394677 5.53576054 -32.9533351 4.2454768 -8.01863098 0.3813324 C-5.30195754 0.03814517 -2.73338914 -0.07315466 0 0 Z " fill="#00519B" transform="translate(2483,198)"/>
<path d="M0 0 C1.17242437 0.00035877 1.17242437 0.00035877 2.36853409 0.00072479 C63.70424088 0.02431579 123.62670242 7.01334609 184.0847168 16.77197266 C210.57862724 21.02943221 237.00874624 24.56446047 263.8125 26.125 C265.8346922 26.2503896 267.85682797 26.37669264 269.87890625 26.50390625 C274.68952866 26.80465819 279.50071106 27.09355574 284.3125 27.375 C283.05366764 31.27608327 281.63189424 34.89932184 279.80102539 38.57080078 C248.56007989 101.51563491 240.59211221 175.49712463 236.2121582 244.66992188 C236.15741837 245.53236008 236.10267853 246.39479828 236.04627991 247.28337097 C235.94657399 248.8758996 235.84944132 250.4685927 235.75559998 252.06147766 C235.71153519 252.77829208 235.6674704 253.49510651 235.62207031 254.23364258 C235.58607727 254.84403885 235.55008423 255.45443512 235.51300049 256.08332825 C235.21197271 259.52400243 234.74089336 262.94785313 234.3125 266.375 C227.3825 266.375 220.4525 266.375 213.3125 266.375 C213.065 263.136875 212.8175 259.89875 212.5625 256.5625 C210.12549584 228.71398178 201.90496349 202.47924836 184.3125 180.375 C183.75691406 179.6428125 183.20132813 178.910625 182.62890625 178.15625 C135.63133075 120.37749348 37.06024201 96.78657453 -32.6875 89.375 C-50.59647035 87.65864382 -68.39275277 87.07573156 -86.375 87.1875 C-88.78360923 87.1964248 -91.19221929 87.20512888 -93.60083008 87.21362305 C-100.62997727 87.24479228 -107.65865592 87.30361986 -114.6875 87.375 C-116.1725 87.38950195 -116.1725 87.38950195 -117.6875 87.40429688 C-198.52440239 88.24054069 -285.42937172 97.50883335 -345.30761719 157.69018555 C-350.41819414 162.97725136 -354.9273247 168.69277543 -359.33300781 174.57177734 C-360.67413034 176.35720109 -362.03496652 178.12614179 -363.3984375 179.89453125 C-371.00728629 189.88276542 -377.46238251 200.48159567 -383.6875 211.375 C-384.29440674 212.42977539 -384.29440674 212.42977539 -384.91357422 213.50585938 C-403.17690213 245.56208866 -414.89715032 282.44701201 -422.6875 318.375 C-422.89959106 319.35064911 -422.89959106 319.35064911 -423.1159668 320.3460083 C-440.92284656 402.66953178 -446.58726452 488.79326663 -371.97265625 786.375 C-361.18527791 802.95815127 -349.03371896 818.66129055 -335.6484375 833.23046875 C-333.86457266 835.18134883 -332.14797206 837.17248048 -330.4375 839.1875 C-322.80233934 847.91844761 -314.50497722 856.01359717 -305.41015625 863.2109375 C-302.56683895 865.47090563 -299.82003964 867.8238946 -297.0625 870.1875 C-234.80293518 921.97722786 -153.02316348 946.31532892 -27.68359375 957.578125 C-26.79702654 957.58095238 -25.91045933 957.58377975 -24.99702644 957.58669281 C-20.29399458 957.60157664 -15.59099247 957.61087105 -10.88793945 957.61523438 C-7.07273666 957.61959368 -3.25776322 957.63340192 0.55737305 957.65625 C94.57407804 958.20764016 181.09285315 931.95599262 276.3125 866.375 C279.81258867 867.79941092 281.27486811 869.36451454 283.2578125 872.55078125 C283.77730469 873.37900391 284.29679687 874.20722656 284.83203125 875.06054688 C285.36183594 875.92744141 285.89164063 876.79433594 286.4375 877.6875 C286.97503906 878.54279297 287.51257812 879.39808594 288.06640625 880.27929688 C290.52609168 884.23871569 292.66735251 887.99967959 294.3125 892.375 C288.94844034 897.34479609 283.57389068 902.22680371 277.875 906.8125 C272.75350843 910.94627534 267.92312992 915.33112519 263.1015625 919.8046875 C260.7674045 921.95577429 258.40503383 924.05425658 256 926.125 C252.91090355 928.80009383 250.03616324 931.62705338 247.17626953 934.54370117 C245.42607056 936.26340808 243.6238954 937.85406389 241.75390625 939.44140625 C236.51778754 943.99575749 231.64461148 948.89692659 226.75 953.8125 C225.84314453 954.71548828 224.93628906 955.61847656 224.00195312 956.54882812 C219.43893392 961.11846519 214.99853404 965.73031993 210.81860352 970.65454102 C209.22241284 972.47790877 207.54245374 974.17871871 205.8125 975.875 C202.77655075 978.86372337 199.96741341 981.99206479 197.1875 985.21875 C195.13890906 987.57462958 193.04046998 989.8800746 190.9375 992.1875 C187.06216257 996.48108632 183.3902869 1000.90588002 179.75390625 1005.40234375 C177.03529677 1008.71252266 174.2414311 1011.94974976 171.4375 1015.1875 C166.03343831 1021.45228753 160.88428666 1027.8839381 155.82226562 1034.42675781 C154.16322964 1036.56762249 152.49618481 1038.70209705 150.828125 1040.8359375 C144.86860387 1048.46646476 138.94773538 1056.11776631 133.1796875 1063.89453125 C132.56351563 1064.71308594 131.94734375 1065.53164062 131.3125 1066.375 C130.67828125 1067.23351563 130.0440625 1068.09203125 129.390625 1068.9765625 C127.17197027 1071.53719033 125.05082866 1073.1385282 122.1875 1074.9375 C120.88425781 1075.77474609 120.88425781 1075.77474609 119.5546875 1076.62890625 C111.47224779 1080.98173824 103.3656105 1083.26115415 94.375 1084.9375 C92.71343872 1085.25436768 92.71343872 1085.25436768 91.01831055 1085.57763672 C88.79259458 1085.99752242 86.56579801 1086.41172587 84.33789062 1086.81982422 C81.82063528 1087.28175439 79.3088705 1087.76456398 76.796875 1088.25390625 C65.80735896 1090.28299732 54.68978469 1091.11303163 43.5625 1092 C42.78323151 1092.06262024 42.00396301 1092.12524048 41.20108032 1092.1897583 C20.04705116 1093.86476867 -1.09430059 1094.58531027 -22.3125 1094.5625 C-23.36854431 1094.56189575 -24.42458862 1094.5612915 -25.51263428 1094.56066895 C-103.58387379 1094.44067866 -180.78376806 1082.80386795 -425.6875 956.375 C-426.19812988 955.9094873 -426.70875977 955.44397461 -427.23486328 954.96435547 C-436.14450128 946.83798235 -444.96940632 938.68860136 -452.82421875 929.515625 C-454.97636777 927.04313514 -457.20730719 924.65228643 -459.4375 922.25 C-464.73324095 916.44073266 -469.56873223 910.32987635 -474.35693359 904.09960938 C-475.5984296 902.49044831 -476.85528654 900.89317102 -478.11328125 899.296875 C-510.01538042 858.57079095 -534.56264589 812.13303222 -551.6875 763.375 C-552.01911133 762.45364258 -552.35072266 761.53228516 -552.69238281 760.58300781 C-575.83023967 696.12594018 -584.94492215 625.41144647 -584.875 557.1875 C-584.87439575 556.09106171 -584.8737915 554.99462341 -584.87316895 553.86495972 C-584.8460041 535.6209511 -584.38686264 517.5484828 -582.6875 499.375 C-582.62433594 498.69512024 -582.56117188 498.01524048 -582.49609375 497.3147583 C-573.65141662 403.06637738 -544.92532899 306.83908563 -483.23291016 220.44677734 C-481.69682174 218.38749673 -480.18069036 216.31476837 -478.66796875 214.23828125 C-471.79736708 204.86417603 -464.4271908 196.04107304 -456.6875 187.375 C-455.88441406 186.47136719 -455.08132812 185.56773437 -454.25390625 184.63671875 C-452.07766826 182.20445276 -449.88445473 179.7885559 -447.6875 177.375 C-446.8728125 176.4675 -446.058125 175.56 -445.21875 174.625 C-435.86485703 164.28069484 -426.22174336 153.96384772 -415.55078125 144.9609375 C-413.33278815 143.07308593 -411.20507845 141.09797208 -409.0625 139.125 C-403.47210325 134.08684609 -397.58717328 129.48957411 -391.63427734 124.89355469 C-389.65216147 123.3474347 -387.69383775 121.77485557 -385.73828125 120.1953125 C-368.21243517 106.14255735 -349.24245368 93.43781583 -329.6875 82.375 C-328.98898926 81.97909668 -328.29047852 81.58319336 -327.57080078 81.17529297 C-322.99778677 78.59312976 -318.40389075 76.05145492 -313.79541016 73.53320312 C-311.93283301 72.50979961 -310.08079859 71.46725909 -308.23046875 70.421875 C-240.57127842 32.92970434 -160.94777191 13.07420707 -82.3125 4.125 C-81.64036469 4.04786774 -80.96822937 3.97073547 -80.27572632 3.89126587 C-53.55936432 0.87149878 -26.85851654 -0.03670979 0 0 Z " fill="#00519B" transform="translate(3262.6875,181.625)"/>
<path d="M0 0 C14.01126714 -0.79060442 22.51526913 3.42527146 34.09375 10.5859375 C34.71773682 10.97056152 35.34172363 11.35518555 35.98461914 11.75146484 C37.3944882 12.62488342 38.79955744 13.50607595 40.20092773 14.39306641 C46.61985202 18.37496425 53.27781391 21.61319389 60.14492798 24.74908447 C63.47187917 26.26878135 66.78986033 27.80789575 70.109375 29.34375 C70.77890701 29.65289337 71.44843903 29.96203674 72.13825989 30.2805481 C81.45778139 34.58843669 90.69604422 39.06567605 99.94238281 43.52783203 C103.07058303 45.033984 106.20265168 46.53180269 109.3359375 48.02734375 C129.53157892 57.67103377 149.5398423 67.53608357 169.11230469 78.39794922 C171.08267034 79.49107903 173.0547533 80.58111771 175.02832031 81.66845703 C213.54554382 102.8898842 250.99197469 126.48162018 285.04296875 154.4074707 C286.49366672 155.58797255 287.95655987 156.75352195 289.42578125 157.91088867 C296.49599458 163.54672352 302.96192473 169.62097981 309.33398438 176.01831055 C310.98968034 177.67716068 312.65827497 179.32221044 314.328125 180.96679688 C340.54354403 207.0289659 365.79606772 244.30643732 366.38037109 282.49804688 C366.35946151 294.18460195 365.44827034 304.81227844 362 316 C361.79101074 316.6796582 361.58202148 317.35931641 361.36669922 318.05957031 C353.71642603 342.02469576 338.591526 361.46568221 321 379 C320.38898438 379.63421875 319.77796875 380.2684375 319.1484375 380.921875 C313.80493361 386.43015654 308.03122818 391.26702811 302 396 C301.36884277 396.49693359 300.73768555 396.99386719 300.08740234 397.50585938 C290.35198483 405.14166332 280.44729428 412.36928349 270 419 C269.32420898 419.42990234 268.64841797 419.85980469 267.95214844 420.30273438 C185.21464111 472.61024939 88.63022818 502.01645736 -163.16764069 555.34254837 C-165.35245596 555.67457582 -167.53694086 556.00870351 -169.72137451 556.3432312 C-218.31679157 563.76334917 -267.16296423 569.11739165 -316.0625 574.0625 C-343.62676301 576.85133648 -371.18114387 579.64151206 -398.6640625 583.15625 C-400.06389468 583.33453433 -400.06389468 583.33453433 -401.4920063 583.51642036 C-422.07827883 586.15315762 -442.56697921 589.36632433 -463 593 C-463.70404968 593.1242334 -464.40809937 593.2484668 -465.13348389 593.37646484 C-522.14453966 603.48601854 -584.79104653 617.44853613 -636 645 C-636.7223584 645.38124023 -637.4447168 645.76248047 -638.18896484 646.15527344 C-667.4292021 661.61963928 -695.44494479 682.33483436 -706.25 714.75 C-711.99010812 739.62380185 -704.85920316 764.73636551 -692.12255859 786.21826172 C-688.8234922 791.45457893 -684.91619607 796.21966677 -681 801 C-680.26910156 801.92296875 -679.53820312 802.8459375 -678.78515625 803.796875 C-670.00775039 814.78053659 -660.27602184 824.82029023 -650.38314819 834.79208374 C-648.97970612 836.20743571 -647.58024342 837.6267301 -646.1809082 839.04614258 C-640.85114005 844.38261785 -635.35621235 849.30945032 -629.46704102 854.02099609 C-626.92125178 856.06317002 -624.46781535 858.18359781 -622.02368164 860.34472656 C-613.13550556 868.17760085 -603.63519181 875.12156355 -594 882 C-593.10603516 882.6398584 -592.21207031 883.2797168 -591.29101562 883.93896484 C-555.33793203 909.57546164 -516.68100101 930.82269219 -478 952 C-478.33 952.66 -478.66 953.32 -479 954 C-506.10514119 944.98072287 -532.19383554 934.23139347 -558 922 C-559.07588379 921.49291504 -560.15176758 920.98583008 -561.26025391 920.46337891 C-574.18437965 914.36628947 -586.94568919 908.04425909 -599.54541016 901.30371094 C-603.14666634 899.39096894 -606.76829997 897.51808562 -610.38867188 895.6418457 C-639.69489641 880.43814054 -668.59283811 864.44701688 -696 846 C-696.78487793 845.47486816 -697.56975586 844.94973633 -698.37841797 844.40869141 C-714.57986884 833.54946533 -730.53272911 822.34771728 -745.22900391 809.5 C-746.59160907 808.34589935 -747.97906553 807.22109272 -749.37646484 806.109375 C-756.35886658 800.54258003 -762.73652171 794.57397127 -769.01660156 788.24414062 C-770.62347307 786.62653713 -772.24078494 785.01993087 -773.859375 783.4140625 C-780.34914356 776.93302049 -786.33073536 770.22383513 -792 763 C-792.92836124 761.84633471 -793.8567425 760.69268553 -794.78515625 759.5390625 C-817.30386566 730.7243846 -829.18995954 698.42498 -825.7890625 661.72363281 C-822.90417795 639.02702217 -810.44002282 618.25000171 -796 601 C-795.27031006 600.12021484 -795.27031006 600.12021484 -794.52587891 599.22265625 C-786.29861629 589.33635528 -777.88599611 580.32914266 -767.8203125 572.265625 C-766.04644241 570.84063241 -764.28850302 569.39534122 -762.5546875 567.921875 C-739.47132766 548.38423501 -712.63521505 534.03246916 -686 520 C-685.07380859 519.50822266 -684.14761719 519.01644531 -683.19335938 518.50976562 C-655.61045038 503.95049936 -626.26374032 492.68107193 -597 482 C-596.36461304 481.76750549 -595.72922607 481.53501099 -595.07458496 481.29547119 C-509.55847862 450.0319465 -420.80542789 428.92307889 -144.33203125 391.03125 C-59.88133647 383.42943808 26.6498419 372.53117585 159 329 C159.91861816 328.61779297 160.83723633 328.23558594 161.78369141 327.84179688 C179.62821305 320.36233373 196.9993598 311.31967472 212 299 C213.07386536 298.1518961 214.14809978 297.30425933 215.22265625 296.45703125 C232.29748109 282.76516702 247.47399094 263.42222857 250 241 C251.81792897 213.22076953 240.82453461 188.54484493 224 167 C223.38769531 166.20722656 222.77539062 165.41445313 222.14453125 164.59765625 C220.13051342 162.03549336 218.07264938 159.5149608 216 157 C215.19691406 156.01 214.39382813 155.02 213.56640625 154 C207.24994844 146.3422896 200.43461678 139.22543072 193.4375 132.1875 C192.57552002 131.31633545 191.71354004 130.4451709 190.82543945 129.54760742 C185.6172829 124.36409903 180.22594745 119.58523949 174.47265625 115.01342773 C172.06938538 113.05649894 169.81138952 111.00618863 167.5625 108.875 C159.57039753 101.60484656 150.69520195 95.39121622 142 89 C141.26249512 88.45327637 140.52499023 87.90655273 139.76513672 87.34326172 C119.68927868 72.46383562 98.65660392 58.8960092 77.51855469 45.58642578 C75.09575082 44.06031299 72.67621876 42.52916355 70.2578125 40.99609375 C61.23309885 35.27867333 52.18286094 29.60223802 43.125 23.9375 C41.58126709 22.97179077 41.58126709 22.97179077 40.00634766 21.98657227 C39.03745605 21.38127686 38.06856445 20.77598145 37.0703125 20.15234375 C36.21195801 19.61601318 35.35360352 19.07968262 34.46923828 18.52709961 C33.65438965 18.02315674 32.83954102 17.51921387 32 17 C31.15139404 16.44836182 30.30278809 15.89672363 29.4284668 15.32836914 C25.95712373 13.42954762 22.54805769 13.55909448 18.6875 13.5 C12.57696764 13.26342972 7.44581418 13.04965594 2 10 C-0.0625 7.625 -0.0625 7.625 -1 5 C-0.72217039 3.32318767 -0.39529845 1.65306625 0 0 Z " fill="#00519B" transform="translate(833,232)"/>
<path d="M0 0 C10.53686804 -0.17223359 21.00189526 0.4367056 31.51245117 1.07006836 C62.42879547 2.91535867 93.31725464 3.20122865 124.27902222 3.18867874 C127.53473004 3.18748729 130.79043466 3.18803596 134.04614258 3.18869019 C171.12723484 3.18709044 208.09978756 2.54282864 245.12145996 0.30702209 C251.08475036 -0.04300528 257.02873866 -0.1053752 263 0 C261.55237643 2.89524714 259.553884 3.24111403 256.625 4.5625 C236.55840136 14.38131073 224.30162312 33.17495652 217.02832031 53.74853516 C214.08077283 62.98650644 212.20793716 72.28618451 210.5 81.8125 C210.34970337 82.6424649 210.19940674 83.47242981 210.04455566 84.32754517 C205.89977908 107.32031232 203.11976665 130.30764546 201.48828125 153.609375 C201.42366259 154.52679411 201.35904392 155.44421322 201.29246712 156.38943291 C199.80640891 177.78172993 199.11790511 199.18599983 198.51989746 220.61846924 C198.27314684 229.43477743 198.01405272 238.25071837 197.74609375 247.06640625 C197.71757702 248.00865681 197.68906029 248.95090736 197.65967941 249.92171097 C196.4601264 288.96775963 196.4601264 288.96775963 194.75428677 305.36137581 C193.740569 315.6272253 193.82415536 325.89441159 193.79467773 336.19921875 C193.78507898 338.33740418 193.7750678 340.47558779 193.76467896 342.61376953 C193.73768521 348.42069192 193.7166055 354.22762223 193.69667697 360.0345726 C193.67453711 366.21617711 193.64723379 372.39775913 193.62062073 378.5793457 C193.57631556 389.04377155 193.53559176 399.50820673 193.49731445 409.97265625 C193.45874964 420.5143367 193.41727915 431.05600076 193.37231445 441.59765625 C193.36687048 442.87445281 193.3614265 444.15124937 193.35581756 445.46673673 C193.35038381 446.74110281 193.34495006 448.01546888 193.33935165 449.32845211 C193.13182456 498.03547543 192.95935511 546.74248394 192.94991422 595.44999695 C192.94923517 598.27926163 192.94795928 601.10852551 192.94656181 603.93778992 C192.92091435 665.62119426 193.72906731 727.34972371 197.12472534 788.95013428 C197.98118801 804.59390473 198.42951066 820.24717291 198.87445068 835.9067688 C200.39698583 889.455374 202.54794857 942.77869578 215.5 995 C215.68541351 995.75154358 215.87082703 996.50308716 216.06185913 997.27740479 C223.22451046 1026.06498447 234.9127108 1041.17480149 259.79150391 1057.15039062 C261.21142221 1058.07452391 262.60838144 1059.03377636 264 1060 C264 1060.33 264 1060.66 264 1061 C256.40223588 1061.12877679 248.90273187 1060.72754393 241.328125 1060.16015625 C240.12927673 1060.07374374 238.93042847 1059.98733124 237.69525146 1059.89830017 C233.87991314 1059.62308088 230.06493232 1059.34328714 226.25 1059.0625 C222.47790114 1058.78549029 218.70573339 1058.50967196 214.93328857 1058.2374115 C212.59751303 1058.06880039 210.26191779 1057.89765846 207.92657471 1057.72315979 C189.68711917 1056.40520957 171.46406678 1055.83311892 153.1796875 1055.796875 C152.18462315 1055.79404762 151.18955879 1055.79122025 150.16434097 1055.78830719 C144.88104253 1055.77346341 139.59777027 1055.76414521 134.31445312 1055.75976562 C130.0607833 1055.75541964 125.80732073 1055.74165741 121.55371094 1055.71875 C79.39773222 1055.49663259 37.86786995 1058.20431906 -4 1063 C-0.76344864 1059.66961658 2.6771014 1057.04831117 6.5 1054.4375 C28.30547535 1039.09037057 40.65412613 1020.39687393 46 994.125 C46.16608765 993.33098785 46.33217529 992.53697571 46.5032959 991.71890259 C53.0348369 960.46274775 57.07566472 928.94063378 59.81506348 897.14373779 C59.98264408 895.20118552 60.15464134 893.25901551 60.32714844 891.31689453 C61.77087699 874.67026683 62.37567457 857.97879549 62.9921875 841.28515625 C63.03607605 840.09857925 63.0799646 838.91200226 63.12518311 837.68946838 C64.22344382 807.52891466 64.63980295 777.36144688 65.05212402 747.1852417 C65.47178576 716.58466227 66.05576479 686.02444622 67.5 655.453125 C67.54058596 654.58534392 67.58117191 653.71756285 67.62298775 652.82348537 C67.82590053 648.52230565 68.04162874 644.22244808 68.28048706 639.92311096 C69.22742818 622.01813678 69.14745842 604.11169109 69.1343255 586.18753505 C69.13174708 581.54759465 69.13415497 576.90765596 69.13571167 572.26771545 C69.13752039 564.46712891 69.13516424 556.66655189 69.13037109 548.8659668 C69.1249598 539.95884329 69.12667352 531.05174281 69.1321975 522.14461988 C69.13680073 514.40094911 69.13734383 506.65728509 69.13475883 498.91361338 C69.13323124 494.33188508 69.13290101 489.7501674 69.13629532 485.16843987 C69.1480995 466.62779315 69.03627877 448.09979564 68.55419922 429.56469727 C68.5347872 428.79842636 68.51537518 428.03215545 68.49537492 427.24266422 C68.2107824 416.29280392 67.67094855 405.37011681 67 394.4375 C65.36210647 366.64190477 65.0678655 338.82139218 64.7890625 310.984375 C64.29586076 253.46731283 64.29586076 253.46731283 62 196 C61.95014954 195.11868408 61.90029907 194.23736816 61.84893799 193.3293457 C59.85158752 102.44086186 59.85158752 102.44086186 26 22 C25.4121875 21.20980469 24.824375 20.41960937 24.21875 19.60546875 C21.5208617 16.43734992 18.53913764 14.02692378 15.25 11.5 C14.63108887 11.01805176 14.01217773 10.53610352 13.37451172 10.03955078 C9.07453139 6.72711498 4.65569171 3.79341503 0 1 C0 0.67 0 0.34 0 0 Z " fill="#00519B" transform="translate(4736,199)"/>
<path d="M0 0 C0.80521749 0.00265901 1.61043497 0.00531801 2.44005299 0.00805759 C3.0510469 0.01147632 3.66204081 0.01489504 4.29154968 0.01841736 C4.31516454 16.51148936 4.33266644 33.00455567 4.34336185 49.49764061 C4.34846527 57.15984549 4.35541728 64.82203962 4.36698914 72.48423767 C4.46488074 138.55606573 4.46488074 138.55606573 3.29154968 165.01841736 C0.68823144 165.88619011 -1.24050682 166.24183571 -3.93519592 166.47120667 C-4.79893609 166.54659007 -5.66267626 166.62197348 -6.55259037 166.69964123 C-7.49960032 166.7785727 -8.44661028 166.85750418 -9.4223175 166.93882751 C-10.42495605 167.02541532 -11.42759459 167.11200312 -12.46061611 167.20121479 C-14.65184347 167.39007336 -16.84321363 167.57728036 -19.03470421 167.76305962 C-22.55006773 168.06127545 -26.06500951 168.36406518 -29.5798645 168.66821289 C-34.59725123 169.10232963 -39.61474314 169.53519769 -44.63230896 169.96723938 C-104.52897691 175.13382619 -164.31676593 180.48951707 -223.70845032 190.01841736 C-224.58211243 190.15807922 -225.45577454 190.29774109 -226.35591125 190.44163513 C-292.33233547 201.03002559 -363.38106198 214.98442538 -422.70845032 247.01841736 C-423.36603333 247.3672699 -424.02361633 247.71612244 -424.7011261 248.07554626 C-448.79710804 260.90407885 -468.57435399 277.4525818 -482.70845032 301.01841736 C-483.2279425 301.87435486 -483.74743469 302.73029236 -484.28266907 303.61216736 C-492.94124221 319.21320005 -492.25176936 338.25344763 -487.70845032 355.01841736 C-480.60876406 377.79153912 -466.33211802 397.35275053 -450.70845032 415.01841736 C-449.98399719 415.85372986 -449.25954407 416.68904236 -448.51313782 417.54966736 C-439.6008652 427.67874472 -430.00989575 437.30458523 -419.70845032 446.01841736 C-418.59890786 446.98939691 -417.49099996 447.96224572 -416.38423157 448.93638611 C-408.68534851 455.69854983 -400.8584802 462.22212026 -392.72993469 468.46080017 C-390.4792499 470.19502347 -388.242746 471.9468065 -386.00532532 473.69810486 C-373.8889176 483.12158944 -361.39145148 491.79717911 -348.53218079 500.1736908 C-345.96735591 501.84927585 -343.41572978 503.54266046 -340.86860657 505.24497986 C-316.96110018 521.13735433 -291.89088833 535.26776097 -266.70845032 549.01841736 C-265.62032043 549.61396423 -264.53219055 550.20951111 -263.41108704 550.82310486 C-257.18246956 554.23186579 -250.94896051 557.63147788 -244.70845032 561.01841736 C-248.79116423 562.379322 -251.23982456 560.87402677 -255.02095032 559.28404236 C-255.76491562 558.97948624 -256.50888092 558.67493011 -257.27539062 558.36114502 C-259.75755605 557.34072455 -262.23312944 556.30532162 -264.70845032 555.26841736 C-266.45945588 554.54164725 -268.21051481 553.81500573 -269.96162415 553.08848572 C-316.4657915 533.7170653 -362.75082396 513.07881874 -406.82514954 488.61607361 C-409.8139391 486.95996532 -412.80983207 485.3171891 -415.80610657 483.67466736 C-430.43272151 475.61671351 -444.65563935 467.03700594 -458.70845032 458.01841736 C-459.70183411 457.38226501 -460.6952179 456.74611267 -461.71870422 456.09068298 C-484.8927099 441.21540042 -507.27949759 425.32283939 -528.70845032 408.01841736 C-529.51451721 407.37114685 -529.51451721 407.37114685 -530.33686829 406.71080017 C-538.51635174 400.089196 -546.05740704 392.87043149 -553.52095032 385.45591736 C-554.39243713 384.59369568 -555.26392395 383.731474 -556.16181946 382.84312439 C-578.97546832 359.91878234 -596.13962079 332.24778433 -604.70845032 301.01841736 C-605.07970032 299.69390564 -605.07970032 299.69390564 -605.45845032 298.34263611 C-612.07104223 269.55030882 -601.82430702 240.23194335 -586.70845032 216.01841736 C-575.46916587 199.26813052 -561.44302777 184.54594717 -545.70845032 172.01841736 C-544.5497641 171.07058334 -543.39226429 170.12129764 -542.23579407 169.17076111 C-473.31644249 112.79722966 -382.23056851 81.35512565 -286.70845032 54.01841736 C-285.80755676 53.76467346 -284.90666321 53.51092957 -283.97846985 53.24949646 C-198.73279302 29.29373404 -111.45567892 14.19832822 -23.78749084 2.43229675 C-21.86731432 2.17418989 -19.94738627 1.91421922 -18.02784729 1.65141296 C-15.82445726 1.34991529 -13.62026345 1.05562483 -11.41548157 0.76451111 C-10.30277893 0.61554382 -9.19007629 0.46657654 -8.0436554 0.31309509 C-5.32410218 0.07281248 -2.72415145 -0.01169081 0 0 Z " fill="#00519B" transform="translate(606.7084503173828,-0.0184173583984375)"/>
<path d="M0 0 C9.95682206 3.72843898 19.7371738 7.79570929 29.5 12 C30.63817673 12.48904816 30.63817673 12.48904816 31.79934692 12.98797607 C66.25991584 27.80103567 100.30635174 43.51956736 134 60 C135.6094751 60.78721436 135.6094751 60.78721436 137.25146484 61.59033203 C150.74095609 68.21007769 164.0323428 75.12791929 177.16650391 82.42724609 C180.08953573 84.0496975 183.0191722 85.65978792 185.94921875 87.26953125 C225.76387498 109.2440003 264.10191515 133.74200967 299 163 C300.03771431 163.85031669 301.07547717 164.70057412 302.11328125 165.55078125 C316.25644674 177.26975927 329.97264343 190.26847347 341 205 C341.86163094 206.10964549 342.72363478 207.21900147 343.5859375 208.328125 C365.23947627 236.57835944 380.05983793 270.42488975 375.68359375 306.61669922 C372.37907801 325.90239846 363.37570405 344.25213923 352 360 C351.23429687 361.06476563 350.46859375 362.12953125 349.6796875 363.2265625 C339.10662496 377.47784199 326.09448386 390.24816563 312 401 C311.10539062 401.72316406 310.21078125 402.44632813 309.2890625 403.19140625 C293.91130573 415.44114163 277.13119636 426.356743 260 436 C259.16662109 436.46937988 258.33324219 436.93875977 257.47460938 437.42236328 C231.14401388 452.15098215 203.90351774 464.60596468 176 476 C175.2974408 476.28746094 174.59488159 476.57492187 173.87103271 476.87109375 C88.65672619 511.67103819 -2.1376225 534.15335361 -210.5 567.5 C-211.55371796 567.62346298 -211.55371796 567.62346298 -212.62872314 567.74942017 C-219.86439218 568.58802266 -226.67343519 569 -234 569 C-234.33 515.21 -234.66 461.42 -235 406 C-232.77474736 404.88737368 -231.23768464 404.7361926 -228.76615906 404.50924683 C-227.43040313 404.38355001 -227.43040313 404.38355001 -226.06766224 404.25531387 C-225.08586837 404.16703197 -224.1040745 404.07875008 -223.0925293 403.98779297 C-222.05761447 403.89145443 -221.02269964 403.79511589 -219.95642376 403.695858 C-217.69213389 403.48554224 -215.42767234 403.27706881 -213.16306686 403.07017899 C-209.53394679 402.73850697 -205.90530746 402.40197413 -202.27676392 402.0640564 C-197.76943733 401.64448705 -193.26203125 401.22580724 -188.75447536 400.80870831 C-48.75739495 387.92261699 -48.75739495 387.92261699 227 300 C227.56831543 299.50999512 228.13663086 299.01999023 228.72216797 298.51513672 C243.56179954 285.57983445 255.10630611 270.73700007 259 251 C259.226875 249.906875 259.45375 248.81375 259.6875 247.6875 C262.56068855 213.78387508 245.79130412 184.97282575 224.64477539 159.64331055 C219.6656181 153.81496879 214.46445178 148.18001376 209.25 142.5625 C208.64824951 141.9120874 208.04649902 141.2616748 207.42651367 140.59155273 C203.74197873 136.67128815 199.89480279 133.05994617 195.8125 129.55639648 C193.61821161 127.67215773 191.49951717 125.71228131 189.375 123.75 C184.34021721 119.20716545 179.06249081 115.04279637 173.70703125 110.890625 C170.56648055 108.4539765 167.47169896 105.96529121 164.3840332 103.4621582 C157.38604247 97.7990181 150.22784698 92.45482976 142.84960938 87.29931641 C140.90647995 85.93430389 138.9758807 84.55285987 137.046875 83.16796875 C126.24739751 75.43652464 115.19066714 68.15092807 104 61 C103.20303711 60.48937012 102.40607422 59.97874023 101.58496094 59.45263672 C68.79155991 38.46944655 34.96458922 19.13419582 0 2 C0 1.34 0 0.68 0 0 Z " fill="#00519B" transform="translate(821,878)"/>
</svg>
