<?xml version="1.0" encoding="UTF-8"?>
<svg version="1.1" xmlns="http://www.w3.org/2000/svg" width="400" height="400">
<path d="M0 0 C132 0 264 0 400 0 C400 132 400 264 400 400 C268 400 136 400 0 400 C0 268 0 136 0 0 Z " fill="#FEFEFE" transform="translate(0,0)"/>
<path d="M0 0 C60.39 0 120.78 0 183 0 C193.65377955 26.63444889 204.4623631 53.87112489 204 83 C202.37750059 83.83819158 200.75191503 84.6704116 199.125 85.5 C198.22007812 85.9640625 197.31515625 86.428125 196.3828125 86.90625 C194 88 194 88 192 88 C191.92523438 86.77410156 191.85046875 85.54820312 191.7734375 84.28515625 C190.20513033 62.45990619 184.65645372 42.15409534 176.63916016 21.84985352 C176 20 176 20 176 18 C163.69644171 18.24167257 151.3929188 18.48507262 139.08943462 18.73049068 C133.37221989 18.84448189 127.65499588 18.95794705 121.93774414 19.07006836 C95.28777259 19.59310582 68.64225337 20.16558715 42 21 C42.32567963 21.59574326 42.65135925 22.19148651 42.98690796 22.80528259 C53.37970906 41.8521994 61.07121705 60.8551449 66 82 C66.22300781 82.91523438 66.44601563 83.83046875 66.67578125 84.7734375 C67.21298289 87.17649217 67.62853044 89.56561209 68 92 C68.18433594 93.16917969 68.36867188 94.33835937 68.55859375 95.54296875 C71.8326906 118.706439 71.90273654 144.23230193 66 167 C64.58235006 166.06398754 63.16592432 165.1261208 61.75 164.1875 C60.96109375 163.66542969 60.1721875 163.14335937 59.359375 162.60546875 C58.58078125 162.07566406 57.8021875 161.54585937 57 161 C56.30100586 160.62294922 55.60201172 160.24589844 54.88183594 159.85742188 C52.55733001 157.563073 52.53105051 155.97599576 52.49638367 152.78422546 C52.50788956 152.08843887 52.51939545 151.39265228 52.53125 150.67578125 C52.52015589 149.16878093 52.50883482 147.66178227 52.49731445 146.15478516 C52.49849274 145.36452942 52.49967102 144.57427368 52.50088501 143.7600708 C52.49525241 128.18262619 51.4900237 113.22968967 48 98 C47.78714355 97.0709082 47.57428711 96.14181641 47.35498047 95.18457031 C39.71717066 62.95579029 24.7442288 32.36055581 3.9609375 6.56640625 C2 4 2 4 0 0 Z " fill="#02397A" transform="translate(94,86)"/>
<path d="M0 0 C-0.63164062 0.34554932 -1.26328125 0.69109863 -1.9140625 1.04711914 C-17.95783887 9.8535688 -33.59288 19.11397688 -49 29 C-49.97743164 29.62551758 -50.95486328 30.25103516 -51.96191406 30.89550781 C-76.98007376 46.94255103 -101.14434108 63.98680962 -124 83 C-124.59522461 83.49467773 -125.19044922 83.98935547 -125.80371094 84.49902344 C-141.79290114 97.84861503 -157.53374215 112.07780578 -171 128 C-171.8559375 129.00160156 -172.711875 130.00320313 -173.59375 131.03515625 C-178.56684567 136.86761806 -183.44594556 142.75782203 -188.20703125 148.765625 C-190.73056179 151.91041687 -193.35437947 154.95753639 -196 158 C-199.99505922 154.44467798 -202.53350898 150.25747874 -205.3125 145.75 C-205.828125 144.92371094 -206.34375 144.09742188 -206.875 143.24609375 C-207.99525008 141.44996833 -209.11315909 139.65238114 -210.22900391 137.85351562 C-212.67394646 133.91410446 -215.1329973 129.98356789 -217.59130859 126.05249023 C-218.86962352 124.0081347 -220.14728703 121.96337171 -221.42431641 119.91821289 C-226.76067019 111.37280786 -232.13368802 102.85110122 -237.52197266 94.33837891 C-239.08415861 91.86685313 -240.64210484 89.39269286 -242.19921875 86.91796875 C-242.73071533 86.07403564 -243.26221191 85.23010254 -243.80981445 84.3605957 C-244.81315057 82.76724599 -245.81566687 81.17337957 -246.81713867 79.57885742 C-250.12637976 74.32777755 -253.53506861 69.14958923 -257 64 C-256.67 63.34 -256.34 62.68 -256 62 C-255.33355469 62.61746094 -254.66710937 63.23492187 -253.98046875 63.87109375 C-248.41047936 68.98925183 -242.75476166 73.91421267 -236.86328125 78.6640625 C-234.34560765 80.71804451 -231.87368006 82.81609561 -229.41259766 84.93725586 C-223.99195269 89.59616539 -218.44752886 94.05848731 -212.75 98.375 C-212.11296143 98.86266846 -211.47592285 99.35033691 -210.81958008 99.8527832 C-206.11630047 103.37373831 -201.19204387 106.25751281 -196 109 C-186.72360531 102.21205694 -177.47410503 95.39945336 -168.375 88.375 C-145.84382348 71.0672329 -121.89869818 56.64110744 -97 43 C-95.94651367 42.4210498 -94.89302734 41.84209961 -93.80761719 41.24560547 C-72.28631768 29.44413376 -50.55521384 18.08021209 -28 8.375 C-26.87352051 7.89015137 -25.74704102 7.40530273 -24.58642578 6.90576172 C-4.59949449 -1.53316483 -4.59949449 -1.53316483 0 0 Z " fill="#FAD244" transform="translate(358,157)"/>
<path d="M0 0 C24.08663288 -2.64596176 24.08663288 -2.64596176 31.43994141 1.31396484 C35.55836443 4.94934358 38.11073037 9.53842656 40.61523438 14.37304688 C42.06613957 17.12546929 43.66480691 19.73038196 45.328125 22.359375 C64.79545692 53.44064576 81.09132598 92.58850189 79 130 C77.109375 129.453125 77.109375 129.453125 75 128 C74.22610561 125.53090839 73.70231872 123.27999618 73.25 120.75 C65.05732397 81.58377739 42.36248689 44.70378527 15 16 C13.76260768 14.56957447 12.53248646 13.13279927 11.3125 11.6875 C8.32350782 8.21968869 5.0180527 5.27500025 1.50390625 2.34765625 C1.00761719 1.90292969 0.51132812 1.45820312 0 1 C0 0.67 0 0.34 0 0 Z " fill="#0457BE" transform="translate(63,108)"/>
<path d="M0 0 C27.75823097 -2.24779158 27.75823097 -2.24779158 34.5703125 2.5078125 C37.41614515 5.10860516 39.69003173 8.05921258 41.82519531 11.26025391 C43.57316565 13.8487902 45.64527339 16.14063581 47.6875 18.5 C49.13287924 20.32712786 50.57023565 22.16062748 52 24 C52.78761719 24.98226562 53.57523438 25.96453125 54.38671875 26.9765625 C68.09855878 44.21592984 79.42274222 63.30759857 88.1875 83.5 C88.58662598 84.41491211 88.98575195 85.32982422 89.39697266 86.27246094 C89.75452637 87.12098633 90.11208008 87.96951172 90.48046875 88.84375 C90.79910889 89.59849609 91.11774902 90.35324219 91.44604492 91.13085938 C92 93 92 93 91 95 C86.2730524 89.96906863 82.28352155 84.62710946 78.40405273 78.92114258 C74.85238597 73.7235632 71.02287976 68.83773314 67 64 C66.19046875 63.01644531 65.3809375 62.03289062 64.546875 61.01953125 C49.11497922 42.41453445 32.28295102 25.59687075 13 11 C11.13138267 9.57856481 9.26405343 8.15550359 7.39892578 6.72949219 C6.23868934 5.84358636 5.07570266 4.96126793 3.90966797 4.08300781 C2.58847168 3.07855084 1.29136498 2.04253053 0 1 C0 0.67 0 0.34 0 0 Z " fill="#4093F5" transform="translate(41,136)"/>
<path d="M0 0 C-3.96 1.98 -3.96 1.98 -8 4 C-8.33 3.01 -8.66 2.02 -9 1 C-3.375 -1.125 -3.375 -1.125 0 0 Z " fill="#FADA66" transform="translate(358,157)"/>
</svg>
