<svg width="22" height="23" fill="currentColor" viewBox="0 0 148 32" xmlns="http://www.w3.org/2000/svg" class="logo">
<path d="M48.1702 7.11002C47.3277 8.11326 46.3115 8.9567 45.1702 9.60002C44.9893 9.23779 44.7606 8.90146 44.4902 8.60002C45.78 8.01044 46.9085 7.11857 47.7802 6.00002H44.6602V4.93002H48.1702V1.77002H49.3402V4.93002H52.8202V6.00002H49.6202C50.4702 6.50002 51.9302 7.45002 52.3302 7.74002L51.6302 8.66002C50.9005 8.01535 50.136 7.41111 49.3402 6.85002V9.17002H48.1702V7.11002ZM50.8102 16.11C50.3375 15.7472 49.8433 15.4132 49.3302 15.11C48.0807 16.0613 46.647 16.7423 45.1202 17.11C44.9688 16.7499 44.7667 16.4131 44.5202 16.11C45.8759 15.8176 47.1605 15.2603 48.3002 14.47C47.4571 14.0269 46.5889 13.6329 45.7002 13.29C46.0502 12.78 46.4302 12.15 46.7902 11.49H45.0002V10.53H47.3102C47.4766 10.1749 47.6234 9.81106 47.7502 9.44002L48.8702 9.65002C48.7502 9.94002 48.6502 10.23 48.5202 10.53H51.3002H51.4902L52.2102 10.82C51.819 12.1702 51.1169 13.41 50.1602 14.44C50.6546 14.7036 51.1321 14.9975 51.5902 15.32L50.8102 16.11ZM46.3602 4.81002C46.1165 4.01625 45.7595 3.2618 45.3002 2.57002L46.2202 2.20002C46.7056 2.86919 47.0804 3.61198 47.3302 4.40002L46.3602 4.81002ZM48.0002 11.61C47.7402 12.08 47.4902 12.61 47.2502 12.95C47.8802 13.23 48.5602 13.55 49.1702 13.86C49.8524 13.23 50.3942 12.4634 50.7602 11.61H48.0002ZM52.3802 2.61002C51.9141 3.36736 51.4067 4.09847 50.8602 4.80002L50.0002 4.36002C50.5079 3.64829 50.9497 2.89183 51.3202 2.10002L52.3802 2.61002ZM58.7202 6.28002C58.4459 8.50218 57.818 10.6662 56.8602 12.69C57.6222 14.1796 58.7997 15.4162 60.2502 16.25C59.9201 16.5351 59.6396 16.873 59.4202 17.25C58.078 16.4099 56.9702 15.2437 56.2002 13.86C55.1781 15.3636 53.8052 16.5958 52.2002 17.45C52.0074 17.0901 51.7724 16.7544 51.5002 16.45C53.2241 15.6403 54.661 14.3254 55.6202 12.68C54.9463 11.2263 54.443 9.69949 54.1202 8.13002C53.8111 8.91116 53.4223 9.65843 52.9602 10.36C52.6492 10.0787 52.3146 9.8244 51.9602 9.60002C53.2602 7.74002 54.0002 4.89002 54.4602 1.94002L55.6202 2.11002C55.4677 3.10396 55.2607 4.08877 55.0002 5.06002H59.8002V6.24002L58.7202 6.28002ZM54.7802 6.28002C55.0704 8.02587 55.5568 9.73337 56.2302 11.37C56.883 9.73837 57.3136 8.02638 57.5102 6.28002H54.7802Z" fill="#495973"></path>
<path d="M64.8699 11V15.79C64.8699 16.48 64.7099 16.79 64.2899 17.01C63.6106 17.2498 62.8856 17.3318 62.1699 17.25C62.0945 16.8465 61.9702 16.4536 61.7999 16.08H63.3999C63.6099 16.08 63.6899 16.01 63.6899 15.76V11.37C62.9699 11.61 62.2899 11.81 61.6899 12L61.3799 10.79C62.0099 10.6 62.8099 10.36 63.6999 10.11V6.37004H61.5799V5.20004H63.6899V1.79004H64.8699V5.20004H66.7899V6.37004H64.8699V9.75004L66.6399 9.19004L66.8099 10.35L64.8699 11ZM73.2699 9.89004V12H76.5399V17.3H75.3799V16.67H70.1499V17.37H68.9999V12H71.9999V9.87004H68.6999C68.5499 12.39 68.0899 15.25 66.6999 17.35C66.4116 17.0555 66.0729 16.8151 65.6999 16.64C67.4599 14.03 67.6099 10.33 67.6099 7.64004V2.52004H76.5399V6.90004H73.3399V8.78004H77.1199V9.87004L73.2699 9.89004ZM72.0599 8.78004V6.90004H68.7699V7.64004C68.7699 8.01004 68.7699 8.37004 68.7699 8.78004H72.0599ZM68.7699 3.63004V5.80004H75.2599V3.63004H68.7699ZM75.3799 13H70.1499V15.57H75.3799V13Z" fill="#495973"></path>
<path d="M84.63 15.83C84.63 16.52 84.5 16.89 84.05 17.11C83.3214 17.3453 82.5518 17.4271 81.79 17.35C81.7398 16.9291 81.6181 16.5199 81.43 16.14C82.21 16.14 82.93 16.14 83.13 16.14C83.33 16.14 83.46 16.06 83.46 15.82V11.62H80.78C80.697 13.5973 80.2636 15.5442 79.5 17.37C79.1991 17.1152 78.8621 16.9063 78.5 16.75C79.68 14.37 79.77 10.99 79.77 8.49002V2.40002H84.67L84.63 15.83ZM83.46 10.41V7.55002H80.88V8.49002C80.88 9.07002 80.88 9.73002 80.88 10.41H83.46ZM80.88 3.58002V6.37002H83.46V3.58002H80.88ZM93.8 8.42002C93.4456 10.4788 92.6508 12.4367 91.47 14.16C92.2599 15.0865 93.225 15.8477 94.31 16.4C93.9924 16.6919 93.7195 17.0288 93.5 17.4C92.4512 16.8027 91.5167 16.024 90.74 15.1C90.0078 15.9657 89.1357 16.7026 88.16 17.28C87.9558 16.9327 87.7033 16.6162 87.41 16.34C88.4012 15.7763 89.2794 15.0337 90 14.15C89.0184 12.6736 88.254 11.0638 87.73 9.37002H87.31V17.37H86.11V2.45002H93.31V5.73002C93.31 6.37002 93.15 6.73002 92.64 6.89002C91.7705 7.0563 90.8836 7.1134 90 7.06002C89.9121 6.6882 89.7707 6.33112 89.58 6.00002C90.58 6.00002 91.5 6.00002 91.76 6.00002C92.02 6.00002 92.1 5.93002 92.1 5.73002V3.63002H87.33V8.20002H92.85H93.07L93.8 8.42002ZM88.86 9.37002C89.2881 10.7282 89.9149 12.0154 90.72 13.19C91.4919 12.0183 92.0662 10.7278 92.42 9.37002H88.86Z" fill="#495973"></path>
<path d="M109.5 3.99995C108.343 5.57958 106.791 6.82782 105 7.61995C107.009 8.18619 109.075 8.52169 111.16 8.61995C110.872 8.96381 110.636 9.34787 110.46 9.75995C108.064 9.61928 105.703 9.11345 103.46 8.25995C101.128 9.13707 98.696 9.72153 96.22 9.99995C96.1018 9.61141 95.9301 9.2412 95.71 8.89995C97.8854 8.70362 100.034 8.27792 102.12 7.62995C101.162 7.11879 100.302 6.44162 99.58 5.62995C98.8497 6.22378 98.0664 6.74932 97.24 7.19995C97.0308 6.84768 96.7676 6.53048 96.46 6.25995C98.4841 5.26313 100.194 3.72664 101.4 1.81995L102.73 2.08995C102.394 2.60926 102.03 3.10999 101.64 3.58995H108.51L108.73 3.51995L109.5 3.99995ZM109.63 11.2399C109.627 11.428 109.607 11.6154 109.57 11.7999C109.21 14.8899 108.82 16.1699 108.24 16.6999C107.854 17.0211 107.361 17.1853 106.86 17.1599C106.36 17.1599 105.34 17.1599 104.33 17.1599C104.301 16.7557 104.166 16.3661 103.94 16.0299C105.01 16.1299 106.09 16.1499 106.51 16.1499C106.766 16.1809 107.026 16.1283 107.25 15.9999C107.64 15.6699 107.98 14.6299 108.25 12.3999H103.09C102.01 15.1399 99.92 16.5799 96.58 17.3999C96.386 17.0159 96.1513 16.6538 95.88 16.3199C98.88 15.7399 100.77 14.5999 101.74 12.4199H97.07V11.2299H102.15C102.305 10.6768 102.412 10.1114 102.47 9.53995L103.79 9.64995C103.7 10.2099 103.58 10.7599 103.46 11.2299L109.63 11.2399ZM100.4 4.85995C101.243 5.85083 102.318 6.61706 103.53 7.08995C105.01 6.53235 106.368 5.6936 107.53 4.61995H100.64L100.4 4.85995Z" fill="#495973"></path>
<path d="M128 11.3701H121V17.3701H119.7V11.3701H112.82V10.1201H119.7V4.18005H113.7V2.93005H127.03V4.18005H121.03V10.1201H128.03L128 11.3701ZM116.06 5.00005C116.756 6.20731 117.297 7.49748 117.67 8.84005L116.48 9.25005C116.12 7.90328 115.624 6.59657 115 5.35005L116.06 5.00005ZM122.91 9.00005C123.635 7.72056 124.25 6.38253 124.75 5.00005L126.08 5.37005C125.468 6.74775 124.767 8.08393 123.98 9.37005L122.91 9.00005Z" fill="#495973"></path>
<path d="M140.15 3.71997C141.848 5.17506 143.359 6.83429 144.65 8.65997L143.58 9.42997C143.282 8.91732 142.947 8.42612 142.58 7.95997C132.84 8.50997 131.86 8.53997 131.19 8.77997C131.084 8.35386 130.947 7.93608 130.78 7.52997C131.323 7.32886 131.8 6.98302 132.16 6.52997C133.613 5.07262 134.901 3.45954 136 1.71997L137.25 2.27997C135.942 4.07097 134.48 5.74402 132.88 7.27997L141.58 6.84997C140.8 5.97193 139.976 5.13418 139.11 4.33997L140.15 3.71997ZM132.05 10.21H142.9V17.3H141.57V16.41H133.33V17.33H132.05V10.21ZM133.33 11.42V15.19H141.57V11.42H133.33Z" fill="#495973"></path>
<path d="M93.9304 28.32L93.8604 28.83H93.1904V21.53H94.0004V23.53V24.43C94.42 24.0162 94.9728 23.7646 95.5604 23.72C96.8504 23.72 97.5604 24.72 97.5604 26.25C97.5604 27.97 96.5604 28.95 95.4004 28.95C94.8492 28.93 94.3251 28.7054 93.9304 28.32V28.32ZM96.6304 26.27C96.6304 25.17 96.2604 24.43 95.3204 24.43C94.8029 24.4835 94.3245 24.7298 93.9804 25.12V27.73C94.3129 28.042 94.7451 28.2262 95.2004 28.25C96.0004 28.25 96.6304 27.51 96.6304 26.27V26.27Z" fill="#495973"></path>
<path d="M98.2798 30.87L98.4398 30.2C98.5602 30.252 98.6888 30.2825 98.8198 30.29C99.3798 30.29 99.7398 29.83 99.9398 29.21L100.05 28.84L98.0498 23.84H98.9298L99.9298 26.61C100.08 27.04 100.26 27.55 100.41 28C100.54 27.55 100.69 27 100.83 26.61L101.72 23.84H102.53L100.65 29.23C100.32 30.23 99.7898 30.96 98.7998 30.96C98.6223 30.9639 98.4457 30.9334 98.2798 30.87Z" fill="#495973"></path>
<path fill-rule="evenodd" clip-rule="evenodd" d="M107.88 23.61C108.235 23.6031 108.588 23.6684 108.917 23.802C109.246 23.9356 109.544 24.1347 109.794 24.3873C110.044 24.6398 110.24 24.9405 110.37 25.271C110.5 25.6015 110.561 25.955 110.55 26.31C110.546 26.6519 110.482 26.9905 110.36 27.31C110.231 27.6248 110.044 27.913 109.81 28.16C109.578 28.42 109.291 28.625 108.97 28.76C108.652 28.8864 108.312 28.9509 107.97 28.95C107.627 28.9595 107.286 28.8947 106.97 28.76C106.666 28.6286 106.39 28.4383 106.16 28.2V30.47H105.25V23.72H106.18V24.35C106.406 24.1229 106.67 23.9368 106.96 23.8C107.25 23.6723 107.563 23.6076 107.88 23.61V23.61ZM107.88 28.07C108.11 28.0735 108.339 28.0301 108.552 27.9424C108.766 27.8547 108.959 27.7246 109.12 27.56C109.285 27.3968 109.415 27.2019 109.503 26.9871C109.59 26.7723 109.634 26.542 109.63 26.31C109.636 26.0702 109.595 25.8315 109.507 25.6082C109.419 25.3849 109.288 25.1815 109.12 25.01C108.959 24.8414 108.765 24.708 108.55 24.6185C108.334 24.529 108.103 24.4852 107.87 24.49C107.646 24.4893 107.425 24.5352 107.22 24.6247C107.015 24.7142 106.831 24.8454 106.68 25.01C106.515 25.1719 106.385 25.3649 106.295 25.5777C106.206 25.7906 106.16 26.0191 106.16 26.25C106.155 26.4881 106.198 26.7247 106.286 26.9461C106.373 27.1675 106.504 27.3694 106.67 27.54C106.818 27.7039 106.999 27.8355 107.2 27.9267C107.401 28.0179 107.619 28.0667 107.84 28.07H107.88Z" fill="#45A321"></path>
<path fill-rule="evenodd" clip-rule="evenodd" d="M116 24.3401V23.7301H116.93V28.8401H116V28.2101C115.782 28.4486 115.516 28.6393 115.22 28.7701C114.928 28.8902 114.616 28.9514 114.3 28.9501C113.945 28.9583 113.592 28.8943 113.262 28.7619C112.933 28.6295 112.634 28.4315 112.383 28.1799C112.132 27.9283 111.936 27.6284 111.804 27.2984C111.673 26.9683 111.611 26.6151 111.62 26.2601C111.621 25.9178 111.685 25.5787 111.81 25.2601C111.932 24.9415 112.12 24.652 112.36 24.4101C112.596 24.1484 112.887 23.942 113.212 23.8055C113.537 23.6689 113.888 23.6056 114.24 23.6201C114.582 23.6132 114.922 23.6744 115.24 23.8001C115.525 23.9314 115.782 24.1145 116 24.3401ZM114.34 28.0701C114.563 28.069 114.784 28.0223 114.989 27.9329C115.193 27.8434 115.378 27.7132 115.53 27.5501C115.688 27.3839 115.811 27.1876 115.892 26.9728C115.973 26.7581 116.01 26.5293 116 26.3001C116.005 26.0634 115.962 25.8283 115.875 25.6084C115.787 25.3885 115.656 25.1885 115.49 25.0201C115.336 24.8504 115.147 24.7154 114.937 24.6241C114.727 24.5327 114.499 24.487 114.27 24.4901C114.039 24.4854 113.81 24.5282 113.597 24.616C113.384 24.7037 113.191 24.8345 113.03 25.0001C112.86 25.1602 112.726 25.3543 112.637 25.5696C112.547 25.785 112.504 26.0169 112.51 26.2501C112.506 26.4904 112.55 26.7292 112.639 26.9524C112.729 27.1756 112.861 27.3788 113.03 27.5501C113.198 27.723 113.401 27.8587 113.625 27.9483C113.849 28.0379 114.089 28.0794 114.33 28.0701H114.34Z" fill="#45A321"></path>
<path d="M118.77 28.83V24.56H118.05V23.72H118.77V22H119.69V23.75H120.62V24.59H119.69V28.86L118.77 28.83Z" fill="#45A321"></path>
<path d="M126.86 28.83H125.94V23.72H126.82V24.31C126.992 24.0955 127.211 23.9242 127.46 23.81C127.705 23.6884 127.977 23.6299 128.25 23.64C128.533 23.6247 128.815 23.6693 129.079 23.771C129.342 23.8727 129.582 24.0292 129.78 24.23C130.172 24.7063 130.366 25.315 130.32 25.93V28.84H129.39V26.13C129.422 25.705 129.317 25.2811 129.09 24.92C128.978 24.7856 128.835 24.68 128.673 24.6122C128.511 24.5443 128.335 24.5162 128.16 24.53C127.968 24.5161 127.776 24.5509 127.601 24.6314C127.426 24.7118 127.275 24.8352 127.16 24.99C126.917 25.4576 126.809 25.9843 126.85 26.51V28.83H126.86Z" fill="#1976D2"></path>
<path fill-rule="evenodd" clip-rule="evenodd" d="M135.8 24.34V23.73H136.73V28.84H135.8V28.21C135.574 28.4445 135.306 28.6345 135.01 28.77C134.715 28.891 134.399 28.9521 134.08 28.95C133.726 28.9603 133.373 28.8972 133.045 28.7647C132.716 28.6322 132.418 28.4331 132.17 28.18C131.918 27.9294 131.719 27.6297 131.587 27.2996C131.455 26.9694 131.391 26.6156 131.4 26.26C131.404 25.9172 131.472 25.578 131.6 25.26C131.722 24.9439 131.906 24.655 132.14 24.41C132.379 24.1535 132.669 23.9492 132.99 23.81C133.308 23.6817 133.648 23.6171 133.99 23.62C134.332 23.6131 134.672 23.6743 134.99 23.8C135.293 23.9259 135.568 24.1093 135.8 24.34V24.34ZM134.13 28.07C134.59 28.057 135.027 27.8644 135.346 27.5336C135.666 27.2028 135.843 26.76 135.84 26.3C135.845 26.0634 135.803 25.8282 135.715 25.6084C135.627 25.3885 135.497 25.1885 135.33 25.02C135.176 24.8504 134.988 24.7154 134.777 24.624C134.567 24.5327 134.34 24.487 134.11 24.49C133.645 24.4927 133.2 24.6793 132.872 25.009C132.544 25.3388 132.36 25.785 132.36 26.25C132.354 26.4907 132.397 26.7301 132.486 26.9536C132.576 27.1772 132.71 27.3801 132.88 27.55C133.042 27.7172 133.237 27.8496 133.452 27.939C133.667 28.0284 133.898 28.073 134.13 28.07V28.07Z" fill="#1976D2"></path>
<path fill-rule="evenodd" clip-rule="evenodd" d="M140.79 23.61C141.146 23.5995 141.5 23.6625 141.83 23.795C142.161 23.9275 142.46 24.1266 142.71 24.38C142.962 24.633 143.159 24.9347 143.289 25.2666C143.42 25.5985 143.482 25.9535 143.47 26.31C143.471 26.6524 143.407 26.9919 143.28 27.31C143.154 27.6244 142.971 27.9126 142.74 28.16C142.505 28.4205 142.214 28.6254 141.89 28.76C141.573 28.8884 141.233 28.9529 140.89 28.95C140.547 28.9605 140.206 28.8956 139.89 28.76C139.581 28.6313 139.302 28.4407 139.07 28.2V30.47H138.16V23.72H139.08V24.35C139.306 24.1229 139.57 23.9368 139.86 23.8C140.153 23.671 140.47 23.6062 140.79 23.61ZM140.79 28.07C141.019 28.0733 141.246 28.0298 141.458 27.9421C141.669 27.8544 141.861 27.7243 142.02 27.56C142.35 27.2142 142.532 26.7537 142.528 26.276C142.525 25.7982 142.335 25.3406 142 25C141.842 24.8352 141.651 24.704 141.441 24.6145C141.23 24.5249 141.004 24.4787 140.775 24.4787C140.546 24.4787 140.32 24.5249 140.109 24.6145C139.899 24.704 139.709 24.8352 139.55 25C139.384 25.1605 139.252 25.3532 139.162 25.5664C139.073 25.7796 139.028 26.0088 139.03 26.24C139.026 26.4781 139.068 26.7147 139.156 26.9361C139.243 27.1575 139.374 27.3594 139.54 27.53C139.695 27.7017 139.885 27.8386 140.097 27.9317C140.309 28.0248 140.539 28.0719 140.77 28.07H140.79Z" fill="#1976D2"></path>
<path d="M124.75 24.45L124.14 25.11C123.85 24.8 123.5 24.47 123.21 24.45C123.104 24.445 122.998 24.4694 122.904 24.5206C122.811 24.5718 122.733 24.6477 122.68 24.74C122.626 24.8217 122.598 24.9173 122.598 25.015C122.598 25.1128 122.626 25.2084 122.68 25.29C122.772 25.4029 122.884 25.4979 123.01 25.57C123.14 25.65 123.2 25.6901 123.39 25.7901L123.87 26.05C124.121 26.1663 124.338 26.3454 124.5 26.57C124.646 26.8078 124.722 27.0814 124.72 27.36C124.734 27.7478 124.594 28.1252 124.33 28.41C124.17 28.5635 123.98 28.6826 123.772 28.7599C123.564 28.8373 123.342 28.8714 123.12 28.86C122.799 28.8688 122.48 28.7953 122.195 28.6466C121.91 28.4978 121.667 28.2787 121.49 28.01L122.03 27.38C122.176 27.5763 122.356 27.7455 122.56 27.88C122.719 27.9732 122.897 28.0279 123.08 28.0401C123.265 28.0328 123.439 27.9571 123.571 27.8276C123.702 27.6981 123.78 27.5242 123.79 27.34C123.764 27.1872 123.696 27.0447 123.593 26.9282C123.491 26.8117 123.358 26.7258 123.21 26.68L122.65 26.38C121.94 25.99 121.65 25.65 121.65 25.05C121.642 24.8653 121.672 24.6809 121.739 24.5086C121.806 24.3364 121.909 24.1801 122.04 24.05C122.185 23.9107 122.355 23.8017 122.543 23.7296C122.73 23.6574 122.93 23.6236 123.13 23.63C123.43 23.6282 123.725 23.7003 123.99 23.84C124.29 23.9776 124.551 24.1872 124.75 24.45V24.45Z" fill="#1976D2"></path>
<path d="M21.38 0.310059C24.1117 0.316653 26.7922 1.05115 29.1457 2.43794C31.4992 3.82472 33.4406 5.81368 34.77 8.20006C34.9604 8.49875 35.0611 8.84584 35.06 9.20006C35.0693 9.60607 34.9396 10.0031 34.6922 10.3252C34.4449 10.6473 34.0948 10.8751 33.7001 10.9708C33.3055 11.0666 32.8899 11.0245 32.5225 10.8516C32.155 10.6786 31.8577 10.3852 31.68 10.0201V10.0201C30.6577 8.18403 29.1645 6.65373 27.354 5.5868C25.5436 4.51987 23.4814 3.95489 21.38 3.95006C18.2096 3.98174 15.1805 5.26685 12.9545 7.52467C10.7286 9.78249 9.48663 12.8295 9.5 16.0001C9.47335 19.1793 10.7094 22.2391 12.9368 24.5077C15.1642 26.7764 18.2008 28.0684 21.38 28.1001C23.5196 28.0921 25.6171 27.505 27.4499 26.4011C29.2828 25.2972 30.7825 23.7176 31.79 21.8301C31.9499 21.5766 32.1713 21.3677 32.4335 21.2226C32.6957 21.0775 32.9903 21.001 33.29 21.0001C33.5264 21.0027 33.7599 21.0518 33.9773 21.1447C34.1947 21.2376 34.3917 21.3724 34.557 21.5414C34.7223 21.7104 34.8526 21.9103 34.9407 22.1297C35.0287 22.3491 35.0726 22.5837 35.07 22.8201C35.0741 23.0789 35.0194 23.3354 34.91 23.5701V23.5701C33.3823 26.4411 30.9832 28.7536 28.0579 30.1748C25.1327 31.5961 21.832 32.0527 18.6307 31.4792C15.4294 30.9056 12.4926 29.3314 10.2427 26.983C7.99285 24.6345 6.54588 21.633 6.11 18.4101H2.42C1.77818 18.4101 1.16264 18.1551 0.708802 17.7013C0.254964 17.2474 0 16.6319 0 15.9901C0 15.3482 0.254964 14.7327 0.708802 14.2789C1.16264 13.825 1.77818 13.5701 2.42 13.5701H6.12C6.66188 9.90209 8.4982 6.54902 11.297 4.11705C14.0958 1.68509 17.6723 0.33471 21.38 0.310059V0.310059ZM21.38 7.57006C23.1832 7.56952 24.9379 8.15413 26.3805 9.23606C27.8231 10.318 28.8756 11.8388 29.38 13.5701H35.62C36.2618 13.5701 36.8774 13.825 37.3312 14.2789C37.785 14.7327 38.04 15.3482 38.04 15.9901C38.04 16.6319 37.785 17.2474 37.3312 17.7013C36.8774 18.1551 36.2618 18.4101 35.62 18.4101H29.35C28.7972 20.346 27.5597 22.015 25.8678 23.1062C24.1759 24.1975 22.1451 24.6366 20.1535 24.3418C18.162 24.0469 16.3454 23.0383 15.0423 21.5037C13.7391 19.969 13.0382 18.0131 13.07 16.0001C13.0593 13.7818 13.9276 11.6495 15.4849 10.0697C17.0422 8.48994 19.1618 7.59119 21.38 7.57006V7.57006ZM21.38 11.2001C20.4174 11.1822 19.4714 11.4518 18.6628 11.9744C17.8542 12.497 17.2199 13.2489 16.8409 14.134C16.4619 15.019 16.3555 15.9969 16.5352 16.9428C16.715 17.8886 17.1727 18.7593 17.8499 19.4437C18.5271 20.128 19.393 20.5948 20.3369 20.7844C21.2808 20.974 22.2598 20.8779 23.1487 20.5082C24.0377 20.1385 24.7962 19.512 25.3272 18.709C25.8583 17.906 26.1378 16.9628 26.13 16.0001C26.1327 14.7348 25.6347 13.5199 24.7447 12.6206C23.8548 11.7213 22.6452 11.2106 21.38 11.2001V11.2001Z" fill="url(#uicons-jf3mda1nfz)"></path>
  <defs><linearGradient id="uicons-jf3mda1nfz" x1="6.21" y1="7.43006" x2="29.7059" y2="26.9679" gradientUnits="userSpaceOnUse"><stop stop-color="#75BB00"></stop><stop offset="1" stop-color="#00A5C4"></stop></linearGradient></defs></svg>